<?xml version="1.0" encoding="utf-8"?>

<!DOCTYPE svg PUBLIC "-//W3C//DTD SVG 1.1//EN" "http://www.w3.org/Graphics/SVG/1.1/DTD/svg11.dtd">
<svg version="1.1" id="Layer_1" xmlns="http://www.w3.org/2000/svg" xmlns:xlink="http://www.w3.org/1999/xlink" x="0px" y="0px"
	 viewBox="0 0 1654.416 1654.416" enable-background="new 0 0 1654.416 1654.416" xml:space="preserve">
<g>
	<path d="M1146.2422,827.208c31.0126,31.4099,48.7036,62.8181,77.912,94.2285c13.489-29.6701-21.3994-61.2857-42.9924-85.985
		c-2.4252-2.7739-4.8655-5.5222-7.3199-8.2435c2.4545-2.7213,4.8948-5.4696,7.3199-8.2435
		c21.593-24.6993,56.4814-56.3149,42.9924-85.985C1194.9458,764.39,1177.2548,795.7981,1146.2422,827.208z"/>
	<path d="M827.208,1146.2422c-31.4099,31.0126-62.8181,48.7036-94.2285,77.912c29.6701,13.489,61.2857-21.3994,85.985-42.9924
		c2.7739-2.4252,5.5222-4.8655,8.2435-7.3199c2.7213,2.4545,5.4696,4.8948,8.2435,7.3199
		c24.6993,21.593,56.3149,56.4814,85.985,42.9924C890.0261,1194.9458,858.6179,1177.2548,827.208,1146.2422z"/>
	<path d="M508.1739,827.208c-31.0126-31.4099-48.7037-62.8181-77.9121-94.2285c-13.4889,29.6701,21.3995,61.2857,42.9925,85.985
		c2.4253,2.7739,4.8656,5.5222,7.3199,8.2435c-2.4544,2.7213-4.8947,5.4696-7.3199,8.2435
		c-21.593,24.6993-56.4814,56.3149-42.9925,85.985C459.4702,890.0261,477.1613,858.6179,508.1739,827.208z"/>
	<path d="M827.208,508.1739c31.4099-31.0126,62.8181-48.7037,94.2285-77.9121c-29.6701-13.4889-61.2857,21.3995-85.985,42.9925
		c-2.7739,2.4253-5.5222,4.8656-8.2435,7.3199c-2.7213-2.4544-5.4696-4.8947-8.2435-7.3199
		c-24.6993-21.593-56.3149-56.4814-85.985-42.9925C764.39,459.4702,795.7981,477.1613,827.208,508.1739z"/>
	<path d="M827.208,543.8796c35.1594-11.9063,89.9578-9.2965,121.0988-0.7628c35.7197,9.7895,71.8918,29.9309,106.714,56.2786
		c26.3477,34.8221,46.489,70.9943,56.2784,106.7139c8.5337,31.1409,11.1436,85.9393-0.7628,121.0988
		c11.9064,35.1594,9.2965,89.9578,0.7628,121.0988c-9.7894,35.7197-29.9308,71.8918-56.2784,106.714
		c-34.8221,26.3477-70.9943,46.489-106.714,56.2784c-31.1409,8.5337-85.9393,11.1436-121.0988-0.7628
		c-35.1594,11.9064-89.9578,9.2965-121.0988,0.7628c-35.7197-9.7894-71.8918-29.9308-106.7139-56.2784
		c-26.3477-34.8221-46.4891-70.9943-56.2786-106.714c-8.5337-31.1409-11.1434-85.9393,0.7628-121.0988
		c-11.9063-35.1594-9.2965-89.9578-0.7628-121.0988c9.7895-35.7197,29.9309-71.8918,56.2786-106.7139
		c34.8221-26.3477,70.9943-46.4891,106.7139-56.2786C737.2502,534.5831,792.0486,531.9733,827.208,543.8796z M1062.9034,591.5125
		c-32.7502-18.0088-65.327-41.5933-101.1617-61.8307c71.5743-14.7222,148.4582-15.3697,214.9621-75.2368
		c28.9769-26.0856,49.2156-53.4719,77.9238-72.5497c4.8312-24.1831-0.4247-48.3663-13.4353-72.5495
		c-8.6897,15.2246-24.6157,30.4519-40.3053,45.6794c-4.7507,24.8388,7.3141,40.961-2.687,61.8015
		c-35.4929,73.9712-175.6508,95.4269-239.1453,99.42c-14.7841,0.9297-30.9786-3.4636-45.6794-2.6871
		c-30.4518,1.6077-62.5933,16.138-86.1673,6.9322c-23.574,9.2058-55.7155-5.3245-86.1673-6.9322
		c-14.7008-0.7766-30.8954,3.6168-45.6794,2.6871c-63.4946-3.993-203.6523-25.4488-239.1453-99.42
		c-10.0011-20.8405,2.0637-36.9626-2.687-61.8015c-15.6896-15.2275-31.6156-30.4549-40.3054-45.6794
		c-13.0106,24.1833-18.2664,48.3664-13.4353,72.5495c28.7082,19.0779,48.9469,46.4641,77.9238,72.5497
		c66.5039,59.8671,143.3878,60.5146,214.9621,75.2368c-35.8347,20.2375-68.4114,43.822-101.1617,61.8307
		c-18.0088,32.7504-41.5933,65.327-61.8307,101.1617c-14.7222-71.5743-15.3697-148.4582-75.2368-214.9621
		c-26.0856-28.9769-53.4719-49.2156-72.5497-77.9238c-24.1831-4.8311-48.3663,0.4247-72.5495,13.4353
		c15.2246,8.6898,30.4519,24.6158,45.6794,40.3054c24.8388,4.7506,40.961-7.3141,61.8015,2.687
		c73.9712,35.493,95.4269,175.6507,99.42,239.1453c0.9297,14.7841-3.4636,30.9786-2.6871,45.6794
		c1.6077,30.4518,16.138,62.5933,6.9322,86.1673c9.2058,23.574-5.3245,55.7155-6.9322,86.1673
		c-0.7766,14.7008,3.6168,30.8954,2.6871,45.6794c-3.993,63.4946-25.4488,203.6524-99.42,239.1453
		c-20.8405,10.0011-36.9626-2.0637-61.8015,2.687c-15.2275,15.6896-30.4549,31.6156-45.6794,40.3053
		c24.1833,13.0106,48.3664,18.2665,72.5495,13.4353c19.0779-28.7083,46.4641-48.9469,72.5497-77.9238
		c59.8671-66.5039,60.5146-143.3878,75.2368-214.9621c20.2375,35.8347,43.822,68.4114,61.8307,101.1617
		c32.7504,18.0089,65.327,41.5934,101.1617,61.8308c-71.5743,14.7222-148.4582,15.3698-214.9621,75.2367
		c-28.9769,26.0857-49.2156,53.4719-77.9238,72.5498c-4.8311,24.1831,0.4247,48.3662,13.4353,72.5494
		c8.6898-15.2245,24.6158-30.4519,40.3054-45.6794c4.7506-24.8387-7.3141-40.9609,2.687-61.8014
		c35.493-73.9712,175.6507-95.427,239.1453-99.4199c14.7841-0.9298,30.9786,3.4635,45.6794,2.687
		c30.4518-1.6077,62.5933-16.1381,86.1673-6.9321c23.574-9.2059,55.7155,5.3245,86.1673,6.9321
		c14.7008,0.7765,30.8954-3.6168,45.6794-2.687c63.4946,3.9929,203.6524,25.4487,239.1453,99.4199
		c10.0011,20.8405-2.0637,36.9626,2.687,61.8014c15.6896,15.2275,31.6156,30.455,40.3053,45.6794
		c13.0106-24.1832,18.2665-48.3663,13.4353-72.5494c-28.7083-19.0779-48.9469-46.4641-77.9238-72.5498
		c-66.5039-59.8669-143.3878-60.5145-214.9621-75.2367c35.8347-20.2374,68.4114-43.8219,101.1617-61.8308
		c18.0089-32.7502,41.5934-65.327,61.8308-101.1617c14.7222,71.5743,15.3698,148.4582,75.2367,214.9621
		c26.0857,28.9769,53.4719,49.2156,72.5498,77.9238c24.1831,4.8312,48.3662-0.4247,72.5494-13.4353
		c-15.2245-8.6897-30.4519-24.6157-45.6794-40.3053c-24.8387-4.7507-40.9609,7.3141-61.8014-2.687
		c-73.9712-35.4929-95.427-175.6508-99.4199-239.1453c-0.9298-14.7841,3.4635-30.9786,2.687-45.6794
		c-1.6077-30.4518-16.1381-62.5933-6.9321-86.1673c-9.2059-23.574,5.3245-55.7155,6.9321-86.1673
		c0.7765-14.7008-3.6168-30.8954-2.687-45.6794c3.9929-63.4946,25.4487-203.6523,99.4199-239.1453
		c20.8405-10.0011,36.9626,2.0637,61.8014-2.687c15.2275-15.6896,30.455-31.6156,45.6794-40.3054
		c-24.1832-13.0106-48.3663-18.2664-72.5494-13.4353c-19.0779,28.7082-46.4641,48.9469-72.5498,77.9238
		c-59.8669,66.5039-60.5145,143.3878-75.2367,214.9621C1104.4968,656.8395,1080.9124,624.2629,1062.9034,591.5125z"/>
	<path d="M827.208,700.8916c0,5.4814,0.7181,11.2582,2.2457,17.2958l37.9894,37.9894c-0.2437-6.3164-0.4234-12.8269,0.2528-19.5942
		c18.1946-2.6221,31.902,1.1529,41.3499,8.7875c7.6346,9.4479,11.4096,23.1553,8.7875,41.3499
		c-6.7673,0.6762-13.2778,0.4965-19.5942,0.2528l37.9894,37.9894c6.0376,1.5275,11.8144,2.2457,17.2958,2.2457
		c-5.4814,0-11.2582,0.7181-17.2958,2.2457l-37.9894,37.9894c6.3164-0.2437,12.8269-0.4234,19.5942,0.2528
		c2.6221,18.1946-1.1529,31.902-8.7875,41.3499c-9.4479,7.6346-23.1553,11.4096-41.3499,8.7875
		c-0.6762-6.7673-0.4965-13.2778-0.2528-19.5942l-37.9894,37.9894c-1.5275,6.0376-2.2457,11.8144-2.2457,17.2958
		c0-5.4814-0.7181-11.2582-2.2457-17.2958l-37.9894-37.9894c0.2437,6.3164,0.4234,12.8269-0.2528,19.5942
		c-18.1946,2.6221-31.902-1.1529-41.3499-8.7875c-7.6346-9.4479-11.4096-23.1553-8.7875-41.3499
		c6.7673-0.6762,13.2778-0.4965,19.5942-0.2528l-37.9894-37.9894c-6.0376-1.5275-11.8145-2.2457-17.2958-2.2457
		c5.4814,0,11.2582-0.7181,17.2958-2.2457l37.9894-37.9894c-6.3164,0.2437-12.8269,0.4234-19.5942-0.2528
		c-2.6221-18.1946,1.1529-31.902,8.7875-41.3499c9.4479-7.6346,23.1553-11.4096,41.3499-8.7875
		c0.6762,6.7673,0.4965,13.2778,0.2528,19.5942l37.9894-37.9894C826.4899,712.1498,827.208,706.373,827.208,700.8916z
		 M926.1089,728.3071c-3.0527-2.7832-6.4001-5.4067-10.0464-7.8466c-23.1622-15.4987-48.4445,0.0189-69.8627-5.374
		c-10.9711-66.9848,72.23-60.2565,102.1071-32.2443c4.0524,3.7997,7.6671,7.9521,10.8654,12.4017
		c4.4495,3.1983,8.6019,6.813,12.4017,10.8654c28.0122,29.8771,34.7405,113.0782-32.2443,102.1071
		c-5.3929-21.4183,10.1246-46.7005-5.374-69.8627C931.5156,734.7073,928.8921,731.3599,926.1089,728.3071z M728.3071,728.3071
		c-2.7832,3.0527-5.4067,6.4001-7.8466,10.0464c-15.4987,23.1622,0.0189,48.4445-5.374,69.8627
		c-66.9848,10.9711-60.2565-72.23-32.2443-102.1071c3.7997-4.0524,7.9521-7.6671,12.4017-10.8654
		c3.1983-4.4495,6.813-8.6019,10.8654-12.4017c29.8771-28.0122,113.0782-34.7405,102.1071,32.2443
		c-21.4183,5.3929-46.7005-10.1246-69.8627,5.374C734.7073,722.9004,731.3599,725.5239,728.3071,728.3071z M728.3071,926.1089
		c3.0527,2.7832,6.4001,5.4067,10.0464,7.8466c23.1622,15.4987,48.4445-0.0189,69.8627,5.374
		c10.9711,66.9848-72.23,60.2565-102.1071,32.2443c-4.0524-3.7997-7.6671-7.9521-10.8654-12.4017
		c-4.4495-3.1984-8.6019-6.813-12.4017-10.8654c-28.0122-29.8771-34.7405-113.0782,32.2443-102.1071
		c5.3929,21.4183-10.1246,46.7005,5.374,69.8627C722.9004,919.7087,725.5239,923.0562,728.3071,926.1089z M926.1089,926.1089
		c2.7832-3.0527,5.4067-6.4001,7.8466-10.0464c15.4987-23.1622-0.0189-48.4445,5.374-69.8627
		c66.9848-10.9711,60.2565,72.23,32.2443,102.1071c-3.7997,4.0524-7.9521,7.6671-12.4017,10.8654
		c-3.1984,4.4495-6.813,8.6019-10.8654,12.4017c-29.8771,28.0122-113.0782,34.7405-102.1071-32.2443
		c21.4183-5.3929,46.7005,10.1246,69.8627-5.374C919.7087,931.5156,923.0562,928.8921,926.1089,926.1089z M972.9698,681.4462
		c-1.0231-1.3355-2.0787-2.6616-3.1671-3.978C918.1112,614.9476,827.208,639.22,827.208,700.8916
		c0-61.6716-90.9032-85.944-142.5948-23.4234c-1.0884,1.3164-2.1439,2.6425-3.1671,3.978c-1.3355,1.0231-2.6616,2.0787-3.978,3.1671
		C614.9476,736.3048,639.22,827.208,700.8916,827.208c-61.6716,0-85.944,90.9032-23.4234,142.5948
		c1.3164,1.0884,2.6425,2.1439,3.978,3.1671c1.0231,1.3355,2.0787,2.6616,3.1671,3.978
		c51.6916,62.5207,142.5948,38.2482,142.5948-23.4234c0,61.6716,90.9032,85.9441,142.5948,23.4234
		c1.0884-1.3164,2.1439-2.6425,3.1671-3.978c1.3355-1.0231,2.6616-2.0787,3.978-3.1671
		c62.5207-51.6916,38.2482-142.5948-23.4234-142.5948c61.6716,0,85.9441-90.9032,23.4234-142.5948
		C975.6314,683.5248,974.3054,682.4693,972.9698,681.4462z"/>
	<path d="M827.208,409.1212c55.0992-42.962,114.019-77.9084,164.0911-102.4626c34.9287,10.8529,69.8627,11.78,104.7941-34.9313
		c-23.2858-7.6312-46.5743-13.4485-69.8628-10.7481c-31.7552,40.1281-65.738,51.5077-94.0458,67.1758
		c-36.3499,20.118-70.4578,40.325-104.9765,65.2253c-34.5187-24.9002-68.6266-45.1072-104.9765-65.2253
		c-28.3078-15.6681-62.2906-27.0477-94.0459-67.1758c-23.2884-2.7003-46.5769,3.1169-69.8627,10.7481
		c34.9313,46.7113,69.8653,45.7842,104.794,34.9313C713.189,331.2129,772.1088,366.1592,827.208,409.1212z"/>
	<path d="M1245.2948,827.208c42.962,55.0992,77.9083,114.019,102.4625,164.0911c-10.8529,34.9287-11.7799,69.8627,34.9314,104.7941
		c7.6312-23.2858,13.4485-46.5743,10.7482-69.8628c-40.1282-31.7552-51.5077-65.738-67.1758-94.0458
		c-20.118-36.3499-40.3251-70.4578-65.2252-104.9765c24.9001-34.5187,45.1072-68.6266,65.2252-104.9765
		c15.6681-28.3078,27.0476-62.2906,67.1758-94.0459c2.7003-23.2884-3.1169-46.5769-10.7482-69.8627
		c-46.7113,34.9313-45.7843,69.8653-34.9314,104.794C1323.2031,713.189,1288.2568,772.1088,1245.2948,827.208z"/>
	<path d="M827.208,1245.2948c-55.0992,42.962-114.019,77.9083-164.0911,102.4625c-34.9287-10.8529-69.8627-11.7799-104.794,34.9314
		c23.2858,7.6312,46.5743,13.4485,69.8627,10.7482c31.7553-40.1282,65.7381-51.5077,94.0459-67.1758
		c36.3499-20.118,70.4578-40.3251,104.9765-65.2252c34.5187,24.9001,68.6266,45.1072,104.9765,65.2252
		c28.3078,15.6681,62.2906,27.0476,94.0458,67.1758c23.2885,2.7003,46.577-3.1169,69.8628-10.7482
		c-34.9314-46.7113-69.8654-45.7843-104.7941-34.9314C941.2271,1323.2031,882.3073,1288.2568,827.208,1245.2948z"/>
	<path d="M409.1212,827.208c-42.962-55.0992-77.9084-114.019-102.4626-164.0911c10.8529-34.9287,11.78-69.8627-34.9313-104.794
		c-7.6312,23.2858-13.4485,46.5743-10.7481,69.8627c40.1281,31.7553,51.5077,65.7381,67.1758,94.0459
		c20.118,36.3499,40.325,70.4578,65.2253,104.9765c-24.9002,34.5187-45.1072,68.6266-65.2253,104.9765
		c-15.6681,28.3078-27.0477,62.2906-67.1758,94.0458c-2.7003,23.2885,3.1169,46.577,10.7481,69.8628
		c46.7113-34.9314,45.7842-69.8654,34.9313-104.7941C331.2129,941.2271,366.1592,882.3073,409.1212,827.208z"/>
	<path d="M827.208,607.7918c55.9572-20.6752,128.8786,1.0127,166.7781,40.1191c1.7749,1.8308,3.2471,4.7241,4.6163,7.9026
		c3.1786,1.3693,6.0718,2.8414,7.9026,4.6163c39.1064,37.8995,60.7943,110.8209,40.1191,166.7781
		c20.6752,55.9572-1.0127,128.8786-40.1191,166.7781c-1.8308,1.7749-4.7241,3.2471-7.9026,4.6163
		c-1.3693,3.1786-2.8414,6.0718-4.6163,7.9026c-37.8995,39.1064-110.8209,60.7943-166.7781,40.1191
		c-55.9572,20.6752-128.8786-1.0127-166.7781-40.1191c-1.7749-1.8308-3.2471-4.7241-4.6163-7.9026
		c-3.1786-1.3693-6.0718-2.8414-7.9026-4.6163c-39.1064-37.8995-60.7943-110.8209-40.1191-166.7781
		c-20.6752-55.9572,1.0127-128.8786,40.1191-166.7781c1.8308-1.7749,4.7241-3.2471,7.9026-4.6163
		c1.3693-3.1786,2.8414-6.0718,4.6163-7.9026C698.3294,608.8045,771.2508,587.1166,827.208,607.7918z M1015.8306,638.5854
		c-50.0584-37.3945-103.6836-62.964-150.8217-60.5371c-10.2817,0.5284-25.1161,3.3123-37.8009,6.8362
		c-12.6848-3.5239-27.5192-6.3077-37.8009-6.8362c-47.1381-2.4269-100.7633,23.1426-150.8217,60.5371
		c-37.3945,50.0584-62.964,103.6836-60.5371,150.8217c0.5284,10.2817,3.3123,25.1161,6.8362,37.8009
		c-3.5239,12.6848-6.3077,27.5192-6.8362,37.8009c-2.4269,47.1381,23.1426,100.7633,60.5371,150.8217
		c50.0584,37.3945,103.6836,62.9639,150.8217,60.5372c10.2817-0.5284,25.1161-3.3123,37.8009-6.8363
		c12.6848,3.524,27.5192,6.3079,37.8009,6.8363c47.1381,2.4268,100.7633-23.1427,150.8217-60.5372
		c37.3945-50.0584,62.9639-103.6836,60.5372-150.8217c-0.5284-10.2817-3.3123-25.1161-6.8363-37.8009
		c3.524-12.6848,6.3079-27.5192,6.8363-37.8009C1078.7946,742.269,1053.2251,688.6438,1015.8306,638.5854z"/>
	<path id="path85" d="M883.8181,86.3226c11.2667,10.7455,20.7546,21.4962,10.7481,32.2443
		c-14.5905-7.1636-2.6655-14.3326-10.7481-21.4962c-10.2805-2.2195-10.6702,2.4694-16.1221,10.7481
		C859.9384,97.2024,876.5281,90.7589,883.8181,86.3226z"/>
	<path id="path85_6_" d="M86.3226,770.598c10.7455-11.2667,21.4962-20.7546,32.2443-10.7481
		c-7.1636,14.5905-14.3326,2.6655-21.4962,10.7481c-2.2195,10.2805,2.4694,10.6702,10.7481,16.1221
		C97.2024,794.4776,90.7589,777.8879,86.3226,770.598z"/>
	<path id="path85_4_" d="M770.598,1568.0935c-11.2667-10.7455-20.7546-21.4962-10.7481-32.2444
		c14.5905,7.1637,2.6655,14.3326,10.7481,21.4962c10.2805,2.2195,10.6702-2.4694,16.1221-10.748
		C794.4776,1557.2136,777.8879,1563.6571,770.598,1568.0935z"/>
	<path id="path85_2_" d="M1568.0935,883.8181c-10.7455,11.2667-21.4962,20.7546-32.2444,10.7481
		c7.1637-14.5905,14.3326-2.6655,21.4962-10.7481c2.2195-10.2805-2.4694-10.6702-10.748-16.1221
		C1557.2136,859.9384,1563.6571,876.5281,1568.0935,883.8181z"/>
	<path id="path85_1_" d="M1568.0935,770.598c-10.7455-11.2667-21.4962-20.7546-32.2444-10.7481
		c7.1637,14.5905,14.3326,2.6655,21.4962,10.7481c2.2195,10.2805-2.4694,10.6702-10.748,16.1221
		C1557.2136,794.4776,1563.6571,777.8879,1568.0935,770.598z"/>
	<path id="path85_7_" d="M770.598,86.3226c-11.2667,10.7455-20.7546,21.4962-10.7481,32.2443
		c14.5905-7.1636,2.6655-14.3326,10.7481-21.4962c10.2805-2.2195,10.6702,2.4694,16.1221,10.7481
		C794.4776,97.2024,777.8879,90.7589,770.598,86.3226z"/>
	<path id="path85_5_" d="M86.3226,883.8181c10.7455,11.2667,21.4962,20.7546,32.2443,10.7481
		c-7.1636-14.5905-14.3326-2.6655-21.4962-10.7481c-2.2195-10.2805,2.4694-10.6702,10.7481-16.1221
		C97.2024,859.9384,90.7589,876.5281,86.3226,883.8181z"/>
	<path id="path85_3_" d="M883.8181,1568.0935c11.2667-10.7455,20.7546-21.4962,10.7481-32.2444
		c-14.5905,7.1637-2.6655,14.3326-10.7481,21.4962c-10.2805,2.2195-10.6702-2.4694-16.1221-10.748
		C859.9384,1557.2136,876.5281,1563.6571,883.8181,1568.0935z"/>
	<path id="path89" d="M870.3829,201.8647c45.975-32.3679-48.7426-65.4237-5.374-91.3589c5.5997,8.0611-7.1045,16.1221-2.687,24.1832
		c15.926,20.5423,35.9013,12.9972,45.6794,29.5573c19.7469,33.44-19.7953,47.0041-51.0535,45.6794
		c-16.3183,17.5221-0.6932,38.3546,16.1221,48.3665c-29.4122,0.0967-33.3245-41.7725-32.2443-59.1146
		C850.679,199.879,860.5296,206.3332,870.3829,201.8647z"/>
	<path id="path89_6_" d="M201.8647,784.0331c-32.3679-45.975-65.4237,48.7426-91.3589,5.374
		c8.0611-5.5997,16.1221,7.1045,24.1832,2.687c20.5423-15.926,12.9972-35.9013,29.5573-45.6794
		c33.44-19.7469,47.0041,19.7953,45.6794,51.0535c17.5221,16.3183,38.3546,0.6932,48.3665-16.1221
		c0.0967,29.4122-41.7725,33.3245-59.1146,32.2443C199.879,803.737,206.3332,793.8864,201.8647,784.0331z"/>
	<path id="path89_4_" d="M784.0331,1452.5514c-45.975,32.3679,48.7426,65.4237,5.374,91.3588
		c-5.5997-8.061,7.1045-16.1221,2.687-24.1832c-15.926-20.5422-35.9013-12.9971-45.6794-29.5573
		c-19.7469-33.4401,19.7953-47.0042,51.0535-45.6794c16.3183-17.5221,0.6932-38.3545-16.1221-48.3665
		c29.4122-0.0967,33.3245,41.7725,32.2443,59.1146C803.737,1454.5371,793.8864,1448.0828,784.0331,1452.5514z"/>
	<path id="path89_2_" d="M1452.5514,870.3829c32.3679,45.975,65.4237-48.7426,91.3588-5.374
		c-8.061,5.5997-16.1221-7.1045-24.1832-2.687c-20.5422,15.926-12.9971,35.9013-29.5573,45.6794
		c-33.4401,19.7469-47.0042-19.7953-45.6794-51.0535c-17.5221-16.3183-38.3545-0.6932-48.3665,16.1221
		c-0.0967-29.4122,41.7725-33.3245,59.1146-32.2443C1454.5371,850.679,1448.0828,860.5296,1452.5514,870.3829z"/>
	<path id="path89_1_" d="M1452.5514,784.0331c32.3679-45.975,65.4237,48.7426,91.3588,5.374
		c-8.061-5.5997-16.1221,7.1045-24.1832,2.687c-20.5422-15.926-12.9971-35.9013-29.5573-45.6794
		c-33.4401-19.7469-47.0042,19.7953-45.6794,51.0535c-17.5221,16.3183-38.3545,0.6932-48.3665-16.1221
		c-0.0967,29.4122,41.7725,33.3245,59.1146,32.2443C1454.5371,803.737,1448.0828,793.8864,1452.5514,784.0331z"/>
	<path id="path89_7_" d="M784.0331,201.8647c-45.975-32.3679,48.7426-65.4237,5.374-91.3589
		c-5.5997,8.0611,7.1045,16.1221,2.687,24.1832c-15.926,20.5423-35.9013,12.9972-45.6794,29.5573
		c-19.7469,33.44,19.7953,47.0041,51.0535,45.6794c16.3183,17.5221,0.6932,38.3546-16.1221,48.3665
		c29.4122,0.0967,33.3245-41.7725,32.2443-59.1146C803.737,199.879,793.8864,206.3332,784.0331,201.8647z"/>
	<path id="path89_5_" d="M201.8647,870.3829c-32.3679,45.975-65.4237-48.7426-91.3589-5.374
		c8.0611,5.5997,16.1221-7.1045,24.1832-2.687c20.5423,15.926,12.9972,35.9013,29.5573,45.6794
		c33.44,19.7469,47.0041-19.7953,45.6794-51.0535c17.5221-16.3183,38.3546-0.6932,48.3665,16.1221
		c0.0967-29.4122-41.7725-33.3245-59.1146-32.2443C199.879,850.679,206.3332,860.5296,201.8647,870.3829z"/>
	<path id="path89_3_" d="M870.3829,1452.5514c45.975,32.3679-48.7426,65.4237-5.374,91.3588
		c5.5997-8.061-7.1045-16.1221-2.687-24.1832c15.926-20.5422,35.9013-12.9971,45.6794-29.5573
		c19.7469-33.4401-19.7953-47.0042-51.0535-45.6794c-16.3183-17.5221-0.6932-38.3545,16.1221-48.3665
		c-29.4122-0.0967-33.3245,41.7725-32.2443,59.1146C850.679,1454.5371,860.5296,1448.0828,870.3829,1452.5514z"/>
	<path id="path95" d="M921.4365,102.4447c15.2274-12.1104,30.4547-7.0454,45.6794,8.0611
		C946.5601,98.3551,937.8864,114.0957,921.4365,102.4447z"/>
	<path id="path95_6_" d="M102.4447,732.9796c-12.1104-15.2274-7.0454-30.4547,8.0611-45.6794
		C98.3551,707.8559,114.0957,716.5296,102.4447,732.9796z"/>
	<path id="path95_4_" d="M732.9796,1551.9713c-15.2274,12.1105-30.4547,7.0453-45.6794-8.0612
		C707.8559,1556.0609,716.5296,1540.3203,732.9796,1551.9713z"/>
	<path id="path95_2_" d="M1551.9713,921.4365c12.1105,15.2274,7.0453,30.4547-8.0612,45.6794
		C1556.0609,946.5601,1540.3203,937.8864,1551.9713,921.4365z"/>
	<path id="path95_1_" d="M1551.9713,732.9796c12.1105-15.2274,7.0453-30.4547-8.0612-45.6794
		C1556.0609,707.8559,1540.3203,716.5296,1551.9713,732.9796z"/>
	<path id="path95_7_" d="M732.9796,102.4447c-15.2274-12.1104-30.4547-7.0454-45.6794,8.0611
		C707.8559,98.3551,716.5296,114.0957,732.9796,102.4447z"/>
	<path id="path95_5_" d="M102.4447,921.4365c-12.1104,15.2274-7.0454,30.4547,8.0611,45.6794
		C98.3551,946.5601,114.0957,937.8864,102.4447,921.4365z"/>
	<path id="path95_3_" d="M921.4365,1551.9713c15.2274,12.1105,30.4547,7.0453,45.6794-8.0612
		C946.5601,1556.0609,937.8864,1540.3203,921.4365,1551.9713z"/>
	<path id="path99" d="M913.3754,126.628c13.4755-23.181,50.1265-12.0889,72.5497,13.4351
		c-2.6763,17.9117,3.4958,35.8261,16.1221,53.7405C957.0368,201.6094,953.7667,110.882,913.3754,126.628z"/>
	<path id="path99_6_" d="M126.628,741.0406c-23.181-13.4755-12.0889-50.1265,13.4351-72.5497
		c17.9117,2.6763,35.8261-3.4958,53.7405-16.1221C201.6094,697.3792,110.882,700.6494,126.628,741.0406z"/>
	<path id="path99_4_" d="M741.0406,1527.7881c-13.4755,23.181-50.1265,12.0889-72.5497-13.4352
		c2.6763-17.9117-3.4958-35.826-16.1221-53.7405C697.3792,1452.8066,700.6494,1543.5339,741.0406,1527.7881z"/>
	<path id="path99_2_" d="M1527.7881,913.3754c23.181,13.4755,12.0889,50.1265-13.4352,72.5497
		c-17.9117-2.6763-35.826,3.4958-53.7405,16.1221C1452.8066,957.0368,1543.5339,953.7667,1527.7881,913.3754z"/>
	<path id="path99_1_" d="M1527.7881,741.0406c23.181-13.4755,12.0889-50.1265-13.4352-72.5497
		c-17.9117,2.6763-35.826-3.4958-53.7405-16.1221C1452.8066,697.3792,1543.5339,700.6494,1527.7881,741.0406z"/>
	<path id="path99_7_" d="M741.0406,126.628c-13.4755-23.181-50.1265-12.0889-72.5497,13.4351
		c2.6763,17.9117-3.4958,35.8261-16.1221,53.7405C697.3792,201.6094,700.6494,110.882,741.0406,126.628z"/>
	<path id="path99_5_" d="M126.628,913.3754c-23.181,13.4755-12.0889,50.1265,13.4351,72.5497
		c17.9117-2.6763,35.8261,3.4958,53.7405,16.1221C201.6094,957.0368,110.882,953.7667,126.628,913.3754z"/>
	<path id="path99_3_" d="M913.3754,1527.7881c13.4755,23.181,50.1265,12.0889,72.5497-13.4352
		c-2.6763-17.9117,3.4958-35.826,16.1221-53.7405C957.0368,1452.8066,953.7667,1543.5339,913.3754,1527.7881z"/>
	<path id="path105" d="M993.9861,78.2615c2.687-2.687,5.374-5.374,8.061-8.0611c10.8341,37.9408,66.2996,76.6609,18.8092,126.2902
		c4.4766,7.4377,8.9559-1.3032,13.4351,2.687c-3.5227,46.3969,54.5574,53.6814,83.2979,24.1832
		c-21.8939-9.3025-56.7823,20.1258-69.8627-5.3741c13.2577-12.1346,32.6635-8.7758,48.3665-10.7481
		c12.6586-1.588,33.0988-15.6546,45.6794,2.687c-29.603,41.6516-76.0885,54.3666-110.1681,18.8092
		c-6.7928-7.0883-6.0459-18.8683-10.7481-26.8703c-5.5192-9.3992-15.9931-12.3657-21.4962-21.4962
		c-8.5931-14.2627-6.4596-56.0138,8.0611-61.8016C1007.7464,105.1345,1008.6304,91.6966,993.9861,78.2615z"/>
	<path id="path105_6_" d="M78.2615,660.4299c-2.687-2.687-5.374-5.374-8.0611-8.061
		c37.9408-10.8341,76.6609-66.2997,126.2902-18.8092c7.4377-4.4766-1.3032-8.9558,2.687-13.4351
		c46.3969,3.5227,53.6814-54.5574,24.1832-83.2978c-9.3025,21.8938,20.1258,56.7822-5.3741,69.8627
		c-12.1346-13.2578-8.7758-32.6635-10.7481-48.3665c-1.588-12.6586-15.6546-33.0988,2.687-45.6794
		c41.6516,29.603,54.3666,76.0884,18.8092,110.168c-7.0883,6.7928-18.8683,6.0458-26.8703,10.7481
		c-9.3992,5.5192-12.3657,15.9931-21.4962,21.4962c-14.2627,8.5931-56.0138,6.4596-61.8016-8.0611
		C105.1345,646.6696,91.6966,645.7856,78.2615,660.4299z"/>
	<path id="path105_4_" d="M660.4299,1576.1545c-2.687,2.687-5.374,5.374-8.061,8.061
		c-10.8341-37.9408-66.2997-76.6609-18.8092-126.2902c-4.4766-7.4376-8.9558,1.3032-13.4351-2.687
		c3.5227-46.3969-54.5574-53.6815-83.2978-24.1832c21.8938,9.3025,56.7822-20.1259,69.8627,5.374
		c-13.2578,12.1346-32.6635,8.7758-48.3665,10.748c-12.6586,1.5881-33.0988,15.6547-45.6794-2.687
		c29.603-41.6516,76.0884-54.3666,110.168-18.8091c6.7928,7.0883,6.0458,18.8682,10.7481,26.8702
		c5.5192,9.3992,15.9931,12.3656,21.4962,21.4962c8.5931,14.2627,6.4596,56.0137-8.0611,61.8015
		C646.6696,1549.2816,645.7856,1562.7194,660.4299,1576.1545z"/>
	<path id="path105_2_" d="M1576.1545,993.9861c2.687,2.687,5.374,5.374,8.061,8.061
		c-37.9408,10.8341-76.6609,66.2996-126.2902,18.8092c-7.4376,4.4766,1.3032,8.9559-2.687,13.4351
		c-46.3969-3.5227-53.6815,54.5574-24.1832,83.2979c9.3025-21.8939-20.1259-56.7823,5.374-69.8627
		c12.1346,13.2577,8.7758,32.6635,10.748,48.3665c1.5881,12.6586,15.6547,33.0988-2.687,45.6794
		c-41.6516-29.603-54.3666-76.0885-18.8091-110.1681c7.0883-6.7928,18.8682-6.0459,26.8702-10.7481
		c9.3992-5.5192,12.3656-15.9931,21.4962-21.4962c14.2627-8.5931,56.0137-6.4596,61.8015,8.0611
		C1549.2816,1007.7464,1562.7194,1008.6304,1576.1545,993.9861z"/>
	<path id="path105_1_" d="M1576.1545,660.4299c2.687-2.687,5.374-5.374,8.061-8.061
		c-37.9408-10.8341-76.6609-66.2997-126.2902-18.8092c-7.4376-4.4766,1.3032-8.9558-2.687-13.4351
		c-46.3969,3.5227-53.6815-54.5574-24.1832-83.2978c9.3025,21.8938-20.1259,56.7822,5.374,69.8627
		c12.1346-13.2578,8.7758-32.6635,10.748-48.3665c1.5881-12.6586,15.6547-33.0988-2.687-45.6794
		c-41.6516,29.603-54.3666,76.0884-18.8091,110.168c7.0883,6.7928,18.8682,6.0458,26.8702,10.7481
		c9.3992,5.5192,12.3656,15.9931,21.4962,21.4962c14.2627,8.5931,56.0137,6.4596,61.8015-8.0611
		C1549.2816,646.6696,1562.7194,645.7856,1576.1545,660.4299z"/>
	<path id="path105_7_" d="M660.4299,78.2615c-2.687-2.687-5.374-5.374-8.061-8.0611
		c-10.8341,37.9408-66.2997,76.6609-18.8092,126.2902c-4.4766,7.4377-8.9558-1.3032-13.4351,2.687
		c3.5227,46.3969-54.5574,53.6814-83.2978,24.1832c21.8938-9.3025,56.7822,20.1258,69.8627-5.3741
		c-13.2578-12.1346-32.6635-8.7758-48.3665-10.7481c-12.6586-1.588-33.0988-15.6546-45.6794,2.687
		c29.603,41.6516,76.0884,54.3666,110.168,18.8092c6.7928-7.0883,6.0458-18.8683,10.7481-26.8703
		c5.5192-9.3992,15.9931-12.3657,21.4962-21.4962c8.5931-14.2627,6.4596-56.0138-8.0611-61.8016
		C646.6696,105.1345,645.7856,91.6966,660.4299,78.2615z"/>
	<path id="path105_5_" d="M78.2615,993.9861c-2.687,2.687-5.374,5.374-8.0611,8.061
		c37.9408,10.8341,76.6609,66.2996,126.2902,18.8092c7.4377,4.4766-1.3032,8.9559,2.687,13.4351
		c46.3969-3.5227,53.6814,54.5574,24.1832,83.2979c-9.3025-21.8939,20.1258-56.7823-5.3741-69.8627
		c-12.1346,13.2577-8.7758,32.6635-10.7481,48.3665c-1.588,12.6586-15.6546,33.0988,2.687,45.6794
		c41.6516-29.603,54.3666-76.0885,18.8092-110.1681c-7.0883-6.7928-18.8683-6.0459-26.8703-10.7481
		c-9.3992-5.5192-12.3657-15.9931-21.4962-21.4962c-14.2627-8.5931-56.0138-6.4596-61.8016,8.0611
		C105.1345,1007.7464,91.6966,1008.6304,78.2615,993.9861z"/>
	<path id="path105_3_" d="M993.9861,1576.1545c2.687,2.687,5.374,5.374,8.061,8.061
		c10.8341-37.9408,66.2996-76.6609,18.8092-126.2902c4.4766-7.4376,8.9559,1.3032,13.4351-2.687
		c-3.5227-46.3969,54.5574-53.6815,83.2979-24.1832c-21.8939,9.3025-56.7823-20.1259-69.8627,5.374
		c13.2577,12.1346,32.6635,8.7758,48.3665,10.748c12.6586,1.5881,33.0988,15.6547,45.6794-2.687
		c-29.603-41.6516-76.0885-54.3666-110.1681-18.8091c-6.7928,7.0883-6.0459,18.8682-10.7481,26.8702
		c-5.5192,9.3992-15.9931,12.3656-21.4962,21.4962c-8.5931,14.2627-6.4596,56.0137,8.0611,61.8015
		C1007.7464,1549.2816,1008.6304,1562.7194,993.9861,1576.1545z"/>
	<path id="path111" d="M856.9478,231.422c34.934-8.1122,69.8653-8.5098,104.794-2.687
		c-21.4963,20.0452-42.9924,50.6075-64.4886,37.6183c11.6429-10.2725,23.2858-3.2513,34.9313-18.8092
		C917.379,227.0152,880.5856,256.1883,856.9478,231.422z"/>
	<path id="path111_6_" d="M231.422,797.4682c-8.1122-34.934-8.5098-69.8653-2.687-104.794
		c20.0452,21.4963,50.6075,42.9924,37.6183,64.4886c-10.2725-11.6429-3.2513-23.2857-18.8092-34.9313
		C227.0152,737.037,256.1883,773.8304,231.422,797.4682z"/>
	<path id="path111_4_" d="M797.4682,1422.994c-34.934,8.1122-69.8653,8.5099-104.794,2.6871
		c21.4963-20.0453,42.9924-50.6075,64.4886-37.6184c-11.6429,10.2725-23.2857,3.2512-34.9313,18.8092
		C737.037,1427.4008,773.8304,1398.2278,797.4682,1422.994z"/>
	<path id="path111_2_" d="M1422.994,856.9478c8.1122,34.934,8.5099,69.8653,2.6871,104.794
		c-20.0453-21.4963-50.6075-42.9924-37.6184-64.4886c10.2725,11.6429,3.2512,23.2858,18.8092,34.9313
		C1427.4008,917.379,1398.2278,880.5856,1422.994,856.9478z"/>
	<path id="path111_1_" d="M1422.994,797.4682c8.1122-34.934,8.5099-69.8653,2.6871-104.794
		c-20.0453,21.4963-50.6075,42.9924-37.6184,64.4886c10.2725-11.6429,3.2512-23.2857,18.8092-34.9313
		C1427.4008,737.037,1398.2278,773.8304,1422.994,797.4682z"/>
	<path id="path111_7_" d="M797.4682,231.422c-34.934-8.1122-69.8653-8.5098-104.794-2.687
		c21.4963,20.0452,42.9924,50.6075,64.4886,37.6183c-11.6429-10.2725-23.2857-3.2513-34.9313-18.8092
		C737.037,227.0152,773.8304,256.1883,797.4682,231.422z"/>
	<path id="path111_5_" d="M231.422,856.9478c-8.1122,34.934-8.5098,69.8653-2.687,104.794
		c20.0452-21.4963,50.6075-42.9924,37.6183-64.4886c-10.2725,11.6429-3.2513,23.2858-18.8092,34.9313
		C227.0152,917.379,256.1883,880.5856,231.422,856.9478z"/>
	<path id="path111_3_" d="M856.9478,1422.994c34.934,8.1122,69.8653,8.5099,104.794,2.6871
		c-21.4963-20.0453-42.9924-50.6075-64.4886-37.6184c11.6429,10.2725,23.2858,3.2512,34.9313,18.8092
		C917.379,1427.4008,880.5856,1398.2278,856.9478,1422.994z"/>
	<path id="path113" d="M1045.0396,86.3226c-6.2688-6.9782-12.5403-13.3518-18.8091-13.4351
		c-5.3714,7.1663-8.8242,14.3326-5.3741,21.4962c-14.3192,0.6906-4.0386-21.3431,8.0611-29.5573
		C1037.1559,62.9669,1059.1975,74.6851,1045.0396,86.3226z"/>
	<path id="path113_6_" d="M86.3226,609.3764c-6.9782,6.2689-13.3518,12.5403-13.4351,18.8092
		c7.1663,5.3713,14.3326,8.8242,21.4962,5.374c0.6906,14.3192-21.3431,4.0386-29.5573-8.0611
		C62.9669,617.2601,74.6851,595.2185,86.3226,609.3764z"/>
	<path id="path113_4_" d="M609.3764,1568.0935c6.2689,6.9781,12.5403,13.3518,18.8092,13.4351
		c5.3713-7.1663,8.8242-14.3325,5.374-21.4962c14.3192-0.6906,4.0386,21.3431-8.0611,29.5573
		C617.2601,1591.4491,595.2185,1579.731,609.3764,1568.0935z"/>
	<path id="path113_2_" d="M1568.0935,1045.0396c6.9781-6.2688,13.3518-12.5403,13.4351-18.8091
		c-7.1663-5.3714-14.3325-8.8242-21.4962-5.3741c-0.6906-14.3192,21.3431-4.0386,29.5573,8.0611
		C1591.4491,1037.1559,1579.731,1059.1975,1568.0935,1045.0396z"/>
	<path id="path113_1_" d="M1568.0935,609.3764c6.9781,6.2689,13.3518,12.5403,13.4351,18.8092
		c-7.1663,5.3713-14.3325,8.8242-21.4962,5.374c-0.6906,14.3192,21.3431,4.0386,29.5573-8.0611
		C1591.4491,617.2601,1579.731,595.2185,1568.0935,609.3764z"/>
	<path id="path113_7_" d="M609.3764,86.3226c6.2689-6.9782,12.5403-13.3518,18.8092-13.4351
		c5.3713,7.1663,8.8242,14.3326,5.374,21.4962c14.3192,0.6906,4.0386-21.3431-8.0611-29.5573
		C617.2601,62.9669,595.2185,74.6851,609.3764,86.3226z"/>
	<path id="path113_5_" d="M86.3226,1045.0396c-6.9782-6.2688-13.3518-12.5403-13.4351-18.8091
		c7.1663-5.3714,14.3326-8.8242,21.4962-5.3741c0.6906-14.3192-21.3431-4.0386-29.5573,8.0611
		C62.9669,1037.1559,74.6851,1059.1975,86.3226,1045.0396z"/>
	<path id="path113_3_" d="M1045.0396,1568.0935c-6.2688,6.9781-12.5403,13.3518-18.8091,13.4351
		c-5.3714-7.1663-8.8242-14.3325-5.3741-21.4962c-14.3192-0.6906-4.0386,21.3431,8.0611,29.5573
		C1037.1559,1591.4491,1059.1975,1579.731,1045.0396,1568.0935z"/>
	<path id="path119" d="M1045.0396,107.8188c-7.099-6.2716-4.0977-12.5404-8.061-18.8092
		C1048.9438,81.0426,1054.7183,100.279,1045.0396,107.8188z"/>
	<path id="path119_6_" d="M107.8188,609.3764c-6.2716,7.0991-12.5404,4.0977-18.8092,8.0611
		C81.0426,605.4722,100.279,599.6978,107.8188,609.3764z"/>
	<path id="path119_4_" d="M609.3764,1546.5973c7.0991,6.2715,4.0977,12.5403,8.0611,18.8091
		C605.4722,1573.3734,599.6978,1554.137,609.3764,1546.5973z"/>
	<path id="path119_2_" d="M1546.5973,1045.0396c6.2715-7.099,12.5403-4.0977,18.8091-8.061
		C1573.3734,1048.9438,1554.137,1054.7183,1546.5973,1045.0396z"/>
	<path id="path119_1_" d="M1546.5973,609.3764c6.2715,7.0991,12.5403,4.0977,18.8091,8.0611
		C1573.3734,605.4722,1554.137,599.6978,1546.5973,609.3764z"/>
	<path id="path119_7_" d="M609.3764,107.8188c7.0991-6.2716,4.0977-12.5404,8.0611-18.8092
		C605.4722,81.0426,599.6978,100.279,609.3764,107.8188z"/>
	<path id="path119_5_" d="M107.8188,1045.0396c-6.2716-7.099-12.5404-4.0977-18.8092-8.061
		C81.0426,1048.9438,100.279,1054.7183,107.8188,1045.0396z"/>
	<path id="path119_3_" d="M1045.0396,1546.5973c-7.099,6.2715-4.0977,12.5403-8.061,18.8091
		C1048.9438,1573.3734,1054.7183,1554.137,1045.0396,1546.5973z"/>
	<path id="path123" d="M886.5051,250.2311c20.5906,38.8893,10.0924,95.9375-37.6184,118.2291
		C832.8854,329.0497,843.1312,289.639,886.5051,250.2311z"/>
	<path id="path123_6_" d="M250.2311,767.9109c38.8893-20.5906,95.9375-10.0924,118.2291,37.6184
		C329.0497,821.5306,289.639,811.2849,250.2311,767.9109z"/>
	<path id="path123_4_" d="M767.9109,1404.1849c-20.5906-38.8894-10.0924-95.9376,37.6184-118.2291
		C821.5306,1325.3663,811.2849,1364.777,767.9109,1404.1849z"/>
	<path id="path123_2_" d="M1404.1849,886.5051c-38.8894,20.5906-95.9376,10.0924-118.2291-37.6184
		C1325.3663,832.8854,1364.777,843.1312,1404.1849,886.5051z"/>
	<path id="path123_1_" d="M1404.1849,767.9109c-38.8894-20.5906-95.9376-10.0924-118.2291,37.6184
		C1325.3663,821.5306,1364.777,811.2849,1404.1849,767.9109z"/>
	<path id="path123_7_" d="M767.9109,250.2311c-20.5906,38.8893-10.0924,95.9375,37.6184,118.2291
		C821.5306,329.0497,811.2849,289.639,767.9109,250.2311z"/>
	<path id="path123_5_" d="M250.2311,886.5051c38.8893,20.5906,95.9375,10.0924,118.2291-37.6184
		C329.0497,832.8854,289.639,843.1312,250.2311,886.5051z"/>
	<path id="path123_3_" d="M886.5051,1404.1849c20.5906-38.8894,10.0924-95.9376-37.6184-118.2291
		C832.8854,1325.3663,843.1312,1364.777,886.5051,1404.1849z"/>
	<path id="path127" d="M1090.719,110.5058c-0.5427-17.557,32.3922-17.5544,32.2444,0
		C1112.2152,107.5716,1101.4672,97.7639,1090.719,110.5058z"/>
	<path id="path127_6_" d="M110.5058,563.697c-17.557,0.5428-17.5544-32.3921,0-32.2443
		C107.5716,542.2008,97.7639,552.9489,110.5058,563.697z"/>
	<path id="path127_4_" d="M563.697,1543.9102c0.5428,17.557-32.3921,17.5544-32.2443,0
		C542.2008,1546.8445,552.9489,1556.6521,563.697,1543.9102z"/>
	<path id="path127_2_" d="M1543.9102,1090.719c17.557-0.5427,17.5544,32.3922,0,32.2444
		C1546.8445,1112.2152,1556.6521,1101.4672,1543.9102,1090.719z"/>
	<path id="path127_1_" d="M1543.9102,563.697c17.557,0.5428,17.5544-32.3921,0-32.2443
		C1546.8445,542.2008,1556.6521,552.9489,1543.9102,563.697z"/>
	<path id="path127_7_" d="M563.697,110.5058c0.5428-17.557-32.3921-17.5544-32.2443,0
		C542.2008,107.5716,552.9489,97.7639,563.697,110.5058z"/>
	<path id="path127_5_" d="M110.5058,1090.719c-17.557-0.5427-17.5544,32.3922,0,32.2444
		C107.5716,1112.2152,97.7639,1101.4672,110.5058,1090.719z"/>
	<path id="path127_3_" d="M1090.719,1543.9102c-0.5427,17.557,32.3922,17.5544,32.2444,0
		C1112.2152,1546.8445,1101.4672,1556.6521,1090.719,1543.9102z"/>
	<path id="path129" d="M926.8105,322.7808c-15.7003-31.3495,11.0436-62.699,45.6794-94.0459
		C996.348,260.4822,969.0908,315.2491,926.8105,322.7808z"/>
	<path id="path129_6_" d="M322.7808,727.6055c-31.3495,15.7003-62.699-11.0436-94.0459-45.6794
		C260.4822,658.0681,315.2491,685.3252,322.7808,727.6055z"/>
	<path id="path129_4_" d="M727.6055,1331.6353c15.7003,31.3495-11.0436,62.699-45.6794,94.0459
		C658.0681,1393.9338,685.3252,1339.1669,727.6055,1331.6353z"/>
	<path id="path129_2_" d="M1331.6353,926.8105c31.3495-15.7003,62.699,11.0436,94.0459,45.6794
		C1393.9338,996.348,1339.1669,969.0908,1331.6353,926.8105z"/>
	<path id="path129_1_" d="M1331.6353,727.6055c31.3495,15.7003,62.699-11.0436,94.0459-45.6794
		C1393.9338,658.0681,1339.1669,685.3252,1331.6353,727.6055z"/>
	<path id="path129_7_" d="M727.6055,322.7808c15.7003-31.3495-11.0436-62.699-45.6794-94.0459
		C658.0681,260.4822,685.3252,315.2491,727.6055,322.7808z"/>
	<path id="path129_5_" d="M322.7808,926.8105c-31.3495-15.7003-62.699,11.0436-94.0459,45.6794
		C260.4822,996.348,315.2491,969.0908,322.7808,926.8105z"/>
	<path id="path129_3_" d="M926.8105,1331.6353c-15.7003,31.3495,11.0436,62.699,45.6794,94.0459
		C996.348,1393.9338,969.0908,1339.1669,926.8105,1331.6353z"/>
	<path id="path133" d="M983.238,223.3609c13.4378-5.2531,26.8702-14.3541,40.3054,2.687
		C1010.1083,236.9357,996.6731,237.5054,983.238,223.3609z"/>
	<path id="path133_6_" d="M223.3609,671.178c-5.2531-13.4378-14.3541-26.8702,2.687-40.3054
		C236.9357,644.3077,237.5054,657.7429,223.3609,671.178z"/>
	<path id="path133_4_" d="M671.178,1431.0552c-13.4378,5.2531-26.8702,14.354-40.3054-2.687
		C644.3077,1417.4802,657.7429,1416.9105,671.178,1431.0552z"/>
	<path id="path133_2_" d="M1431.0552,983.238c5.2531,13.4378,14.354,26.8702-2.687,40.3054
		C1417.4802,1010.1083,1416.9105,996.6731,1431.0552,983.238z"/>
	<path id="path133_1_" d="M1431.0552,671.178c5.2531-13.4378,14.354-26.8702-2.687-40.3054
		C1417.4802,644.3077,1416.9105,657.7429,1431.0552,671.178z"/>
	<path id="path133_7_" d="M671.178,223.3609c-13.4378-5.2531-26.8702-14.3541-40.3054,2.687
		C644.3077,236.9357,657.7429,237.5054,671.178,223.3609z"/>
	<path id="path133_5_" d="M223.3609,983.238c-5.2531,13.4378-14.3541,26.8702,2.687,40.3054
		C236.9357,1010.1083,237.5054,996.6731,223.3609,983.238z"/>
	<path id="path133_3_" d="M983.238,1431.0552c13.4378,5.2531,26.8702,14.354,40.3054-2.687
		C1010.1083,1417.4802,996.6731,1416.9105,983.238,1431.0552z"/>
	<path id="path141" d="M1120.2764,123.9409c2.687-3.563,5.374-4.1864,8.061-2.687c14.9559,19.7066-17.7909,39.4106,5.374,59.1146
		c-13.4351,7.3194-26.8702,17.2561-40.3053-2.687C1086.5299,159.7671,1135.2296,141.8553,1120.2764,123.9409z"/>
	<path id="path141_6_" d="M123.9409,534.1397c-3.563-2.6871-4.1864-5.374-2.687-8.0611
		c19.7066-14.956,39.4106,17.7908,59.1146-5.374c7.3194,13.4351,17.2561,26.8702-2.687,40.3054
		C159.7671,567.8861,141.8553,519.1864,123.9409,534.1397z"/>
	<path id="path141_4_" d="M534.1397,1530.4751c-2.6871,3.563-5.374,4.1864-8.0611,2.687
		c-14.956-19.7067,17.7908-39.4106-5.374-59.1145c13.4351-7.3195,26.8702-17.2561,40.3054,2.687
		C567.8861,1494.6489,519.1864,1512.5607,534.1397,1530.4751z"/>
	<path id="path141_2_" d="M1530.4751,1120.2764c3.563,2.687,4.1864,5.374,2.687,8.061
		c-19.7067,14.9559-39.4106-17.7909-59.1145,5.374c-7.3195-13.4351-17.2561-26.8702,2.687-40.3053
		C1494.6489,1086.5299,1512.5607,1135.2296,1530.4751,1120.2764z"/>
	<path id="path141_1_" d="M1530.4751,534.1397c3.563-2.6871,4.1864-5.374,2.687-8.0611
		c-19.7067-14.956-39.4106,17.7908-59.1145-5.374c-7.3195,13.4351-17.2561,26.8702,2.687,40.3054
		C1494.6489,567.8861,1512.5607,519.1864,1530.4751,534.1397z"/>
	<path id="path141_7_" d="M534.1397,123.9409c-2.6871-3.563-5.374-4.1864-8.0611-2.687
		c-14.956,19.7066,17.7908,39.4106-5.374,59.1146c13.4351,7.3194,26.8702,17.2561,40.3054-2.687
		C567.8861,159.7671,519.1864,141.8553,534.1397,123.9409z"/>
	<path id="path141_5_" d="M123.9409,1120.2764c-3.563,2.687-4.1864,5.374-2.687,8.061
		c19.7066,14.9559,39.4106-17.7909,59.1146,5.374c7.3194-13.4351,17.2561-26.8702-2.687-40.3053
		C159.7671,1086.5299,141.8553,1135.2296,123.9409,1120.2764z"/>
	<path id="path141_3_" d="M1120.2764,1530.4751c2.687,3.563,5.374,4.1864,8.061,2.687
		c14.9559-19.7067-17.7909-39.4106,5.374-59.1145c-13.4351-7.3195-26.8702-17.2561-40.3053,2.687
		C1086.5299,1494.6489,1135.2296,1512.5607,1120.2764,1530.4751z"/>
	<path id="path143" d="M865.0089,389.9565c36.7209-31.0405,73.4445-19.8974,110.168,13.4351
		C938.456,427.3062,901.7324,425.2559,865.0089,389.9565z"/>
	<path id="path143_6_" d="M389.9565,789.4071c-31.0405-36.7209-19.8974-73.4445,13.4351-110.168
		C427.3062,715.96,425.2559,752.6836,389.9565,789.4071z"/>
	<path id="path143_4_" d="M789.4071,1264.4596c-36.7209,31.0405-73.4445,19.8973-110.168-13.4352
		C715.96,1227.1099,752.6836,1229.16,789.4071,1264.4596z"/>
	<path id="path143_2_" d="M1264.4596,865.0089c31.0405,36.7209,19.8973,73.4445-13.4352,110.168
		C1227.1099,938.456,1229.16,901.7324,1264.4596,865.0089z"/>
	<path id="path143_1_" d="M1264.4596,789.4071c31.0405-36.7209,19.8973-73.4445-13.4352-110.168
		C1227.1099,715.96,1229.16,752.6836,1264.4596,789.4071z"/>
	<path id="path143_7_" d="M789.4071,389.9565c-36.7209-31.0405-73.4445-19.8974-110.168,13.4351
		C715.96,427.3062,752.6836,425.2559,789.4071,389.9565z"/>
	<path id="path143_5_" d="M389.9565,865.0089c-31.0405,36.7209-19.8974,73.4445,13.4351,110.168
		C427.3062,938.456,425.2559,901.7324,389.9565,865.0089z"/>
	<path id="path143_3_" d="M865.0089,1264.4596c36.7209,31.0405,73.4445,19.8973,110.168-13.4352
		C938.456,1227.1099,901.7324,1229.16,865.0089,1264.4596z"/>
	<path id="path149" d="M1139.0854,137.3761c4.6056,10.7481,4.8152,21.4962,5.3741,32.2443
		C1127.4373,176.3944,1131.6747,147.318,1139.0854,137.3761z"/>
	<path id="path149_6_" d="M137.3761,515.3305c10.7481-4.6055,21.4962-4.8151,32.2443-5.3741
		C176.3944,526.9788,147.318,522.7413,137.3761,515.3305z"/>
	<path id="path149_4_" d="M515.3305,1517.0399c-4.6055-10.748-4.8151-21.4962-5.3741-32.2443
		C526.9788,1478.0216,522.7413,1507.098,515.3305,1517.0399z"/>
	<path id="path149_2_" d="M1517.0399,1139.0854c-10.748,4.6056-21.4962,4.8152-32.2443,5.3741
		C1478.0216,1127.4373,1507.098,1131.6747,1517.0399,1139.0854z"/>
	<path id="path149_1_" d="M1517.0399,515.3305c-10.748-4.6055-21.4962-4.8151-32.2443-5.3741
		C1478.0216,526.9788,1507.098,522.7413,1517.0399,515.3305z"/>
	<path id="path149_7_" d="M515.3305,137.3761c-4.6055,10.7481-4.8151,21.4962-5.3741,32.2443
		C526.9788,176.3944,522.7413,147.318,515.3305,137.3761z"/>
	<path id="path149_5_" d="M137.3761,1139.0854c10.7481,4.6056,21.4962,4.8152,32.2443,5.3741
		C176.3944,1127.4373,147.318,1131.6747,137.3761,1139.0854z"/>
	<path id="path149_3_" d="M1139.0854,1517.0399c4.6056-10.748,4.8152-21.4962,5.3741-32.2443
		C1127.4373,1478.0216,1131.6747,1507.098,1139.0854,1517.0399z"/>
	<path id="path151" d="M937.5586,344.277c33.1418-26.005,66.2809-12.2287,99.4199,13.4352
		C1014.5634,386.8449,968.9242,380.963,937.5586,344.277z"/>
	<path id="path151_6_" d="M344.277,716.8574c-26.005-33.1418-12.2287-66.2809,13.4352-99.4199
		C386.8449,639.8527,380.963,685.4918,344.277,716.8574z"/>
	<path id="path151_4_" d="M716.8574,1310.139c-33.1418,26.005-66.2809,12.2286-99.4199-13.4352
		C639.8527,1267.5712,685.4918,1273.453,716.8574,1310.139z"/>
	<path id="path151_2_" d="M1310.139,937.5586c26.005,33.1418,12.2286,66.2809-13.4352,99.4199
		C1267.5712,1014.5634,1273.453,968.9242,1310.139,937.5586z"/>
	<path id="path151_1_" d="M1310.139,716.8574c26.005-33.1418,12.2286-66.2809-13.4352-99.4199
		C1267.5712,639.8527,1273.453,685.4918,1310.139,716.8574z"/>
	<path id="path151_7_" d="M716.8574,344.277c-33.1418-26.005-66.2809-12.2287-99.4199,13.4352
		C639.8527,386.8449,685.4918,380.963,716.8574,344.277z"/>
	<path id="path151_5_" d="M344.277,937.5586c-26.005,33.1418-12.2287,66.2809,13.4352,99.4199
		C386.8449,1014.5634,380.963,968.9242,344.277,937.5586z"/>
	<path id="path151_3_" d="M937.5586,1310.139c33.1418,26.005,66.2809,12.2286,99.4199-13.4352
		C1014.5634,1267.5712,968.9242,1273.453,937.5586,1310.139z"/>
	<path id="path155" d="M1268.0627,62.1393c14.7383-0.6906,16.3156,21.3457,8.061,29.5573
		C1275.5972,81.846,1268.5894,71.99,1268.0627,62.1393z"/>
	<path id="path155_6_" d="M62.1393,386.3533c-0.6906-14.7383,21.3457-16.3156,29.5573-8.0611
		C81.846,378.8189,71.99,385.8267,62.1393,386.3533z"/>
	<path id="path155_4_" d="M386.3533,1592.2767c-14.7383,0.6906-16.3156-21.3458-8.0611-29.5574
		C378.8189,1572.5699,385.8267,1582.426,386.3533,1592.2767z"/>
	<path id="path155_2_" d="M1592.2767,1268.0627c0.6906,14.7383-21.3458,16.3156-29.5574,8.061
		C1572.5699,1275.5972,1582.426,1268.5894,1592.2767,1268.0627z"/>
	<path id="path155_1_" d="M1592.2767,386.3533c0.6906-14.7383-21.3458-16.3156-29.5574-8.0611
		C1572.5699,378.8189,1582.426,385.8267,1592.2767,386.3533z"/>
	<path id="path155_7_" d="M386.3533,62.1393c-14.7383-0.6906-16.3156,21.3457-8.0611,29.5573
		C378.8189,81.846,385.8267,71.99,386.3533,62.1393z"/>
	<path id="path155_5_" d="M62.1393,1268.0627c-0.6906,14.7383,21.3457,16.3156,29.5573,8.061
		C81.846,1275.5972,71.99,1268.5894,62.1393,1268.0627z"/>
	<path id="path155_3_" d="M1268.0627,1592.2767c14.7383,0.6906,16.3156-21.3458,8.061-29.5574
		C1275.5972,1572.5699,1268.5894,1582.426,1268.0627,1592.2767z"/>
	<path id="path163" d="M972.4899,389.9565c11.6429-11.084,23.2885-8.8215,34.9313-2.687
		C995.7783,399.5357,984.1328,405.9685,972.4899,389.9565z"/>
	<path id="path163_6_" d="M389.9565,681.9261c-11.084-11.6429-8.8215-23.2885-2.687-34.9313
		C399.5357,658.6377,405.9685,670.2833,389.9565,681.9261z"/>
	<path id="path163_4_" d="M681.9261,1264.4596c-11.6429,11.084-23.2885,8.8215-34.9313,2.687
		C658.6377,1254.8802,670.2833,1248.4475,681.9261,1264.4596z"/>
	<path id="path163_2_" d="M1264.4596,972.4899c11.084,11.6429,8.8215,23.2885,2.687,34.9313
		C1254.8802,995.7783,1248.4475,984.1328,1264.4596,972.4899z"/>
	<path id="path163_1_" d="M1264.4596,681.9261c11.084-11.6429,8.8215-23.2885,2.687-34.9313
		C1254.8802,658.6377,1248.4475,670.2833,1264.4596,681.9261z"/>
	<path id="path163_7_" d="M681.9261,389.9565c-11.6429-11.084-23.2885-8.8215-34.9313-2.687
		C658.6377,399.5357,670.2833,405.9685,681.9261,389.9565z"/>
	<path id="path163_5_" d="M389.9565,972.4899c-11.084,11.6429-8.8215,23.2885-2.687,34.9313
		C399.5357,995.7783,405.9685,984.1328,389.9565,972.4899z"/>
	<path id="path163_3_" d="M972.4899,1264.4596c11.6429,11.084,23.2885,8.8215,34.9313,2.687
		C995.7783,1254.8802,984.1328,1248.4475,972.4899,1264.4596z"/>
	<path id="path171" d="M1316.4292,94.3836c9.813,5.3741,3.176,10.7481,10.748,16.1222
		C1318.9469,118.2686,1303.9641,101.6735,1316.4292,94.3836z"/>
	<path id="path171_6_" d="M94.3836,337.9868c5.3741-9.813,10.7481-3.1761,16.1222-10.7481
		C118.2686,335.4691,101.6735,350.4519,94.3836,337.9868z"/>
	<path id="path171_4_" d="M337.9868,1560.0323c-9.813-5.374-3.1761-10.748-10.7481-16.1222
		C335.4691,1536.1473,350.4519,1552.7424,337.9868,1560.0323z"/>
	<path id="path171_2_" d="M1560.0323,1316.4292c-5.374,9.813-10.748,3.176-16.1222,10.748
		C1536.1473,1318.9469,1552.7424,1303.9641,1560.0323,1316.4292z"/>
	<path id="path171_1_" d="M1560.0323,337.9868c-5.374-9.813-10.748-3.1761-16.1222-10.7481
		C1536.1473,335.4691,1552.7424,350.4519,1560.0323,337.9868z"/>
	<path id="path171_7_" d="M337.9868,94.3836c-9.813,5.3741-3.1761,10.7481-10.7481,16.1222
		C335.4691,118.2686,350.4519,101.6735,337.9868,94.3836z"/>
	<path id="path171_5_" d="M94.3836,1316.4292c5.3741,9.813,10.7481,3.176,16.1222,10.748
		C118.2686,1318.9469,101.6735,1303.9641,94.3836,1316.4292z"/>
	<path id="path171_3_" d="M1316.4292,1560.0323c9.813-5.374,3.176-10.748,10.748-16.1222
		C1318.9469,1536.1473,1303.9641,1552.7424,1316.4292,1560.0323z"/>
	<path id="path175" d="M1324.4902,91.6966c4.5277-12.2394,28.3616,11.5945,16.1222,16.1222
		C1340.8516,98.0246,1331.5974,103.1729,1324.4902,91.6966z"/>
	<path id="path175_6_" d="M91.6966,329.9258c-12.2394-4.5276,11.5945-28.3615,16.1222-16.1222
		C98.0246,313.5645,103.1729,322.8186,91.6966,329.9258z"/>
	<path id="path175_4_" d="M329.9258,1562.7194c-4.5276,12.2394-28.3615-11.5945-16.1222-16.1221
		C313.5645,1556.3915,322.8186,1551.243,329.9258,1562.7194z"/>
	<path id="path175_2_" d="M1562.7194,1324.4902c12.2394,4.5277-11.5945,28.3616-16.1221,16.1222
		C1556.3915,1340.8516,1551.243,1331.5974,1562.7194,1324.4902z"/>
	<path id="path175_1_" d="M1562.7194,329.9258c12.2394-4.5276-11.5945-28.3615-16.1221-16.1222
		C1556.3915,313.5645,1551.243,322.8186,1562.7194,329.9258z"/>
	<path id="path175_7_" d="M329.9258,91.6966c-4.5276-12.2394-28.3615,11.5945-16.1222,16.1222
		C313.5645,98.0246,322.8186,103.1729,329.9258,91.6966z"/>
	<path id="path175_5_" d="M91.6966,1324.4902c-12.2394,4.5277,11.5945,28.3616,16.1222,16.1222
		C98.0246,1340.8516,103.1729,1331.5974,91.6966,1324.4902z"/>
	<path id="path175_3_" d="M1324.4902,1562.7194c4.5277,12.2394,28.3616-11.5945,16.1222-16.1221
		C1340.8516,1556.3915,1331.5974,1551.243,1324.4902,1562.7194z"/>
	<path id="path181" d="M1055.7877,398.0175c33.1122,23.3099,22.786,69.8465-16.1222,102.107
		C1011.2717,466.088,1028.458,432.0541,1055.7877,398.0175z"/>
	<path id="path181_6_" d="M398.0175,598.6283c23.3099-33.1122,69.8465-22.786,102.107,16.1221
		C466.088,643.1443,432.0541,625.9581,398.0175,598.6283z"/>
	<path id="path181_4_" d="M598.6283,1256.3984c-33.1122-23.3098-22.786-69.8464,16.1221-102.1069
		C643.1443,1188.328,625.9581,1222.3619,598.6283,1256.3984z"/>
	<path id="path181_2_" d="M1256.3984,1055.7877c-23.3098,33.1122-69.8464,22.786-102.1069-16.1222
		C1188.328,1011.2717,1222.3619,1028.458,1256.3984,1055.7877z"/>
	<path id="path181_1_" d="M1256.3984,598.6283c-23.3098-33.1122-69.8464-22.786-102.1069,16.1221
		C1188.328,643.1443,1222.3619,625.9581,1256.3984,598.6283z"/>
	<path id="path181_7_" d="M598.6283,398.0175c-33.1122,23.3099-22.786,69.8465,16.1221,102.107
		C643.1443,466.088,625.9581,432.0541,598.6283,398.0175z"/>
	<path id="path181_5_" d="M398.0175,1055.7877c23.3099,33.1122,69.8465,22.786,102.107-16.1222
		C466.088,1011.2717,432.0541,1028.458,398.0175,1055.7877z"/>
	<path id="path181_3_" d="M1055.7877,1256.3984c33.1122-23.3098,22.786-69.8464-16.1222-102.1069
		C1011.2717,1188.328,1028.458,1222.3619,1055.7877,1256.3984z"/>
	<path id="path185" d="M1109.5282,376.5213c35.3264,23.5088,28.9528,81.2852-8.061,104.794
		C1069.5238,446.384,1087.1238,411.4527,1109.5282,376.5213z"/>
	<path id="path185_6_" d="M376.5213,544.8878c23.5088-35.3264,81.2852-28.9527,104.794,8.061
		C446.384,584.8922,411.4527,567.2922,376.5213,544.8878z"/>
	<path id="path185_4_" d="M544.8878,1277.8947c-35.3264-23.5088-28.9527-81.2852,8.061-104.7939
		C584.8922,1208.032,567.2922,1242.9634,544.8878,1277.8947z"/>
	<path id="path185_2_" d="M1277.8947,1109.5282c-23.5088,35.3264-81.2852,28.9528-104.7939-8.061
		C1208.032,1069.5238,1242.9634,1087.1238,1277.8947,1109.5282z"/>
	<path id="path185_1_" d="M1277.8947,544.8878c-23.5088-35.3264-81.2852-28.9527-104.7939,8.061
		C1208.032,584.8922,1242.9634,567.2922,1277.8947,544.8878z"/>
	<path id="path185_7_" d="M544.8878,376.5213c-35.3264,23.5088-28.9527,81.2852,8.061,104.794
		C584.8922,446.384,567.2922,411.4527,544.8878,376.5213z"/>
	<path id="path185_5_" d="M376.5213,1109.5282c23.5088,35.3264,81.2852,28.9528,104.794-8.061
		C446.384,1069.5238,411.4527,1087.1238,376.5213,1109.5282z"/>
	<path id="path185_3_" d="M1109.5282,1277.8947c35.3264-23.5088,28.9528-81.2852-8.061-104.7939
		C1069.5238,1208.032,1087.1238,1242.9634,1109.5282,1277.8947z"/>
	<path id="path187" d="M1157.8947,446.384c-35.1866-30.4521-15.4503-60.9042-10.748-91.3589c2.687-3.563,5.374-4.1864,8.061-2.687
		C1187.2369,383.685,1187.4869,415.0345,1157.8947,446.384z"/>
	<path id="path187_6_" d="M446.384,496.5213c-30.4521,35.1866-60.9042,15.4504-91.3589,10.7481
		c-3.563-2.687-4.1864-5.374-2.687-8.0611C383.685,467.179,415.0345,466.9291,446.384,496.5213z"/>
	<path id="path187_4_" d="M496.5213,1208.032c35.1866,30.452,15.4504,60.9042,10.7481,91.3589
		c-2.687,3.563-5.374,4.1864-8.0611,2.687C467.179,1270.7311,466.9291,1239.3815,496.5213,1208.032z"/>
	<path id="path187_2_" d="M1208.032,1157.8947c30.452-35.1866,60.9042-15.4503,91.3589-10.748c3.563,2.687,4.1864,5.374,2.687,8.061
		C1270.7311,1187.2369,1239.3815,1187.4869,1208.032,1157.8947z"/>
	<path id="path187_1_" d="M1208.032,496.5213c30.452,35.1866,60.9042,15.4504,91.3589,10.7481
		c3.563-2.687,4.1864-5.374,2.687-8.0611C1270.7311,467.179,1239.3815,466.9291,1208.032,496.5213z"/>
	<path id="path187_7_" d="M496.5213,446.384c35.1866-30.4521,15.4504-60.9042,10.7481-91.3589
		c-2.687-3.563-5.374-4.1864-8.0611-2.687C467.179,383.685,466.9291,415.0345,496.5213,446.384z"/>
	<path id="path187_5_" d="M446.384,1157.8947c-30.4521-35.1866-60.9042-15.4503-91.3589-10.748
		c-3.563,2.687-4.1864,5.374-2.687,8.061C383.685,1187.2369,415.0345,1187.4869,446.384,1157.8947z"/>
	<path id="path187_3_" d="M1157.8947,1208.032c-35.1866,30.452-15.4503,60.9042-10.748,91.3589
		c2.687,3.563,5.374,4.1864,8.061,2.687C1187.2369,1270.7311,1187.4869,1239.3815,1157.8947,1208.032z"/>
	<path id="path195" d="M1088.6927,565.7232c-16.8992-5.7686-32.833-20.2662-43.6532-38.7285
		c23.4445-15.9507,46.8905-7.6542,70.3342,12.0475c19.7018,23.4437,27.9982,46.8898,12.0475,70.3341
		C1108.959,598.5563,1094.4614,582.6224,1088.6927,565.7232z"/>
	<path d="M1088.6927,1088.6927c5.7687-16.8992,20.2662-32.833,38.7285-43.6532c15.9507,23.4445,7.6543,46.8905-12.0475,70.3342
		c-23.4437,19.7018-46.8898,27.9982-70.3342,12.0475C1055.8597,1108.959,1071.7936,1094.4614,1088.6927,1088.6927z"/>
	<path d="M565.7232,1088.6927c16.8992,5.7687,32.8331,20.2662,43.6532,38.7285c-23.4443,15.9507-46.8904,7.6543-70.3341-12.0475
		c-19.7018-23.4437-27.9983-46.8898-12.0475-70.3342C545.457,1055.8597,559.9546,1071.7936,565.7232,1088.6927z"/>
	<path d="M565.7232,565.7232c-5.7686,16.8992-20.2662,32.8331-38.7285,43.6532c-15.9507-23.4443-7.6542-46.8904,12.0475-70.3341
		c23.4437-19.7018,46.8898-27.9983,70.3341-12.0475C598.5563,545.457,582.6224,559.9546,565.7232,565.7232z"/>
	<path id="path197" d="M1134.4424,519.9737c-7.4089-3.582-14.8179-9.1339-22.2272-17.1622
		c19.6971-13.3658,39.3934-20.6026,59.0894-19.7001c0.9026,19.6959-6.3344,39.3922-19.7001,59.0893
		C1143.5763,534.7916,1138.0243,527.3826,1134.4424,519.9737z"/>
	<path d="M1134.4424,1134.4424c3.5819-7.4089,9.1339-14.8179,17.1621-22.2272c13.3657,19.6971,20.6027,39.3934,19.7001,59.0894
		c-19.6959,0.9026-39.3922-6.3344-59.0894-19.7001C1119.6245,1143.5763,1127.0334,1138.0243,1134.4424,1134.4424z"/>
	<path d="M519.9737,1134.4424c7.4089,3.5819,14.8179,9.1339,22.2271,17.1621c-19.6971,13.3657-39.3934,20.6027-59.0893,19.7001
		c-0.9025-19.6959,6.3343-39.3922,19.7001-59.0894C510.8398,1119.6245,516.3917,1127.0334,519.9737,1134.4424z"/>
	<path d="M519.9737,519.9737c-3.582,7.4089-9.1339,14.8179-17.1622,22.2271c-13.3658-19.6971-20.6026-39.3934-19.7001-59.0893
		c19.6959-0.9025,39.3922,6.3343,59.0893,19.7001C534.7916,510.8398,527.3826,516.3917,519.9737,519.9737z"/>
	<path id="path201" d="M1186.5378,467.8782c-2.3823-1.5796-4.7646-3.3674-7.147-5.3721
		c10.3354-15.916,25.7214-26.1676,42.3149-29.7959c-3.6283,16.5934-13.8799,31.9794-29.7959,42.3149
		C1189.9052,472.6428,1188.1174,470.2605,1186.5378,467.8782z"/>
	<path d="M1186.5378,1186.5378c1.5796-2.3823,3.3673-4.7646,5.3721-7.147c15.916,10.3354,26.1676,25.7214,29.7959,42.3149
		c-16.5935-3.6283-31.9795-13.8799-42.3149-29.7959C1181.7732,1189.9052,1184.1555,1188.1174,1186.5378,1186.5378z"/>
	<path d="M467.8782,1186.5378c2.3823,1.5796,4.7646,3.3673,7.1469,5.3721c-10.3354,15.916-25.7215,26.1676-42.3149,29.7959
		c3.6283-16.5935,13.8799-31.9795,29.7959-42.3149C464.5109,1181.7732,466.2986,1184.1555,467.8782,1186.5378z"/>
	<path d="M467.8782,467.8782c-1.5796,2.3823-3.3674,4.7646-5.3721,7.1469c-15.916-10.3354-26.1676-25.7215-29.7959-42.3149
		c16.5934,3.6283,31.9794,13.8799,42.3149,29.7959C472.6428,464.5109,470.2605,466.2986,467.8782,467.8782z"/>
	<path id="path471" d="M827.208,226.6159c3.8334,1.6484,7.5001,4.0567,10.9307,7.4931c-0.41,6.3255-5.1777,7.6852-10.9307,7.4513
		c-5.7529,0.2339-10.5206-1.1258-10.9307-7.4513C819.7079,230.6726,823.3746,228.2643,827.208,226.6159z"/>
	<path d="M1427.8,827.208c-1.6483,3.8334-4.0566,7.5001-7.493,10.9307c-6.3256-0.41-7.6852-5.1777-7.4513-10.9307
		c-0.2339-5.7529,1.1257-10.5206,7.4513-10.9307C1423.7434,819.7079,1426.1517,823.3746,1427.8,827.208z"/>
	<path d="M827.208,1427.8c-3.8334-1.6483-7.5001-4.0566-10.9307-7.493c0.41-6.3256,5.1777-7.6852,10.9307-7.4513
		c5.7529-0.2339,10.5206,1.1257,10.9307,7.4513C834.7081,1423.7434,831.0414,1426.1517,827.208,1427.8z"/>
	<path d="M226.6159,827.208c1.6484-3.8334,4.0567-7.5001,7.4931-10.9307c6.3255,0.41,7.6852,5.1777,7.4513,10.9307
		c0.2339,5.7529-1.1258,10.5206-7.4513,10.9307C230.6726,834.7081,228.2643,831.0414,226.6159,827.208z"/>
	<path id="path479" d="M827.208,95.5622c2.7481,1.4387,5.4961,2.261,8.2436,1.5084c0.1416-7.2882-3.6141-8.5674-8.2436-8.5046
		c-4.6295-0.0628-8.3852,1.2164-8.2436,8.5046C821.7119,97.8232,824.4599,97.001,827.208,95.5622z M1558.8538,827.208
		c-1.4387,2.7481-2.261,5.4961-1.5084,8.2436c7.2882,0.1416,8.5674-3.6141,8.5046-8.2436c0.0627-4.6295-1.2164-8.3852-8.5046-8.2436
		C1556.5928,821.7119,1557.415,824.4599,1558.8538,827.208z M827.208,1558.8538c-2.7481-1.4387-5.4961-2.261-8.2436-1.5084
		c-0.1416,7.2882,3.6141,8.5674,8.2436,8.5046c4.6295,0.0627,8.3852-1.2164,8.2436-8.5046
		C832.7041,1556.5928,829.9561,1557.415,827.208,1558.8538z M95.5622,827.208c1.4387-2.7481,2.261-5.4961,1.5084-8.2436
		c-7.2882-0.1416-8.5674,3.6141-8.5046,8.2436c-0.0628,4.6295,1.2164,8.3852,8.5046,8.2436
		C97.8232,832.7041,97.001,829.9561,95.5622,827.208z M827.208,74.4073c4.6782,4.2293,8.7921,8.8136,10.9307,14.6023
		c5.4651-11.5413-5.6047-23.0826-10.9307-34.6232c-5.326,11.5406-16.3958,23.0819-10.9307,34.6232
		C818.4159,83.2209,822.5298,78.6366,827.208,74.4073z M74.4073,827.208c4.2293-4.6782,8.8136-8.7921,14.6023-10.9307
		c-11.5413-5.4651-23.0826,5.6047-34.6232,10.9307c11.5406,5.326,23.0819,16.3958,34.6232,10.9307
		C83.2209,836.0001,78.6366,831.8862,74.4073,827.208z M827.208,1580.0087c-4.6782-4.2292-8.7921-8.8136-10.9307-14.6023
		c-5.4651,11.5414,5.6047,23.0826,10.9307,34.6233c5.326-11.5406,16.3958-23.0819,10.9307-34.6233
		C836.0001,1571.1951,831.8862,1575.7794,827.208,1580.0087z M1580.0087,827.208c-4.2292,4.6782-8.8136,8.7921-14.6023,10.9307
		c11.5414,5.4651,23.0826-5.6047,34.6233-10.9307c-11.5406-5.326-23.0819-16.3958-34.6233-10.9307
		C1571.1951,818.4159,1575.7794,822.5298,1580.0087,827.208z M827.208,35.5438c0.0597-0.0916,0.1205-0.1831,0.1826-0.2747
		c5.2719,14.3326,11.3715,28.6598,16.1221,42.9924c22.1115-6.3494,10.251-35.767,18.8092-51.0535
		c11.35,17.0196-1.83,34.0366-8.0611,51.0535c18.6855-5.6535,32.4189-20.811,32.2443-37.6184
		c3.5818,3.5818,7.1663,7.1663,10.748,10.7481c-8.061,8.0611-16.1221,16.1222-24.1832,24.1832
		c13.4352,1.15,26.8703-7.4861,40.3054,8.0611c-17.7021,0.2795-44.3601-8.8592-53.7405,21.4962
		c-15.3832-11.6697-6.1103-5.3364-21.4962-5.3741c8.2921,18.7178,2.0959,46.5607,34.9313,72.5497
		c-2.3377,7.1636-1.3569,14.3299-5.374,21.4962c-13.4972,11.6092-26.9927-2.2095-40.4879,1.1569
		c-13.4952-3.3663-26.9907,10.4523-40.4879-1.1569c-4.0171-7.1663-3.0363-14.3326-5.374-21.4962
		c32.8354-25.989,26.6392-53.8319,34.9313-72.5497c-15.3859,0.0377-6.1129-6.2957-21.4962,5.3741
		c-9.3804-30.3554-36.0384-21.2167-53.7405-21.4962c13.4351-15.5471,26.8702-6.9111,40.3054-8.0611
		c-8.0611-8.0611-16.1222-16.1222-24.1833-24.1832c3.5818-3.5818,7.1663-7.1663,10.7481-10.7481
		c-0.1746,16.8074,13.5588,31.9649,32.2443,37.6184c-6.2311-17.0169-19.4111-34.0339-8.0611-51.0535
		c8.5582,15.2865-3.3023,44.7041,18.8092,51.0535c4.7507-14.3326,10.8502-28.6598,16.1221-42.9924
		C827.0875,35.3606,827.1483,35.4522,827.208,35.5438z M35.5438,827.208c-0.0916-0.0597-0.1831-0.1205-0.2747-0.1826
		c14.3326-5.2719,28.6598-11.3715,42.9924-16.1221c-6.3494-22.1115-35.767-10.251-51.0535-18.8092
		c17.0196-11.35,34.0366,1.83,51.0535,8.0611c-5.6535-18.6855-20.811-32.4189-37.6184-32.2443
		c3.5818-3.5818,7.1663-7.1663,10.7481-10.7481c8.0611,8.0611,16.1222,16.1222,24.1832,24.1833
		c1.15-13.4352-7.4861-26.8703,8.0611-40.3054c0.2795,17.7021-8.8592,44.3601,21.4962,53.7405
		c-11.6697,15.3832-5.3364,6.1103-5.3741,21.4962c18.7178-8.2921,46.5607-2.0959,72.5497-34.9313
		c7.1636,2.3377,14.3299,1.3569,21.4962,5.374c11.6092,13.4972-2.2095,26.9927,1.1569,40.4879
		c-3.3663,13.4952,10.4523,26.9907-1.1569,40.4879c-7.1663,4.0171-14.3326,3.0363-21.4962,5.374
		c-25.989-32.8354-53.8319-26.6392-72.5497-34.9313c0.0377,15.3859-6.2957,6.1129,5.3741,21.4962
		c-30.3554,9.3804-21.2167,36.0384-21.4962,53.7405c-15.5471-13.4351-6.9111-26.8702-8.0611-40.3054
		c-8.0611,8.0611-16.1222,16.1222-24.1832,24.1832c-3.5818-3.5818-7.1663-7.1663-10.7481-10.748
		c16.8074,0.1746,31.9649-13.5588,37.6184-32.2443c-17.0169,6.2311-34.0339,19.4111-51.0535,8.0611
		c15.2865-8.5582,44.7041,3.3023,51.0535-18.8092c-14.3326-4.7507-28.6598-10.8502-42.9924-16.1221
		C35.3606,827.3286,35.4522,827.2677,35.5438,827.208z M827.208,1618.8722c-0.0597,0.0916-0.1205,0.1832-0.1826,0.2748
		c-5.2719-14.3326-11.3715-28.6599-16.1221-42.9924c-22.1115,6.3494-10.251,35.767-18.8092,51.0535
		c-11.35-17.0197,1.83-34.0366,8.0611-51.0535c-18.6855,5.6534-32.4189,20.811-32.2443,37.6183
		c-3.5818-3.5818-7.1663-7.1663-10.7481-10.748c8.0611-8.061,16.1222-16.1222,24.1833-24.1832
		c-13.4352-1.15-26.8703,7.4861-40.3054-8.061c17.7021-0.2795,44.3601,8.8591,53.7405-21.4962
		c15.3832,11.6697,6.1103,5.3363,21.4962,5.374c-8.2921-18.7179-2.0959-46.5608-34.9313-72.5497
		c2.3377-7.1636,1.3569-14.33,5.374-21.4962c13.4972-11.6093,26.9927,2.2095,40.4879-1.1569
		c13.4952,3.3663,26.9907-10.4524,40.4879,1.1569c4.0171,7.1663,3.0363,14.3326,5.374,21.4962
		c-32.8354,25.9889-26.6392,53.8318-34.9313,72.5497c15.3859-0.0377,6.1129,6.2957,21.4962-5.374
		c9.3804,30.3553,36.0384,21.2167,53.7405,21.4962c-13.4351,15.5471-26.8702,6.911-40.3054,8.061
		c8.0611,8.061,16.1222,16.1222,24.1832,24.1832c-3.5818,3.5818-7.1663,7.1663-10.748,10.748
		c0.1746-16.8073-13.5588-31.9648-32.2443-37.6183c6.2311,17.0168,19.4111,34.0338,8.0611,51.0535
		c-8.5582-15.2865,3.3023-44.7041-18.8092-51.0535c-4.7507,14.3325-10.8502,28.6598-16.1221,42.9924
		C827.3286,1619.0554,827.2677,1618.9637,827.208,1618.8722z M1618.8722,827.208c0.0916,0.0597,0.1832,0.1205,0.2748,0.1826
		c-14.3326,5.2719-28.6599,11.3715-42.9924,16.1221c6.3494,22.1115,35.767,10.251,51.0535,18.8092
		c-17.0197,11.35-34.0366-1.83-51.0535-8.0611c5.6534,18.6855,20.811,32.4189,37.6183,32.2443
		c-3.5818,3.5818-7.1663,7.1663-10.748,10.748c-8.061-8.061-16.1222-16.1221-24.1832-24.1832
		c-1.15,13.4352,7.4861,26.8703-8.061,40.3054c-0.2795-17.7021,8.8591-44.3601-21.4962-53.7405
		c11.6697-15.3832,5.3363-6.1103,5.374-21.4962c-18.7179,8.2921-46.5608,2.0959-72.5497,34.9313
		c-7.1636-2.3377-14.33-1.3569-21.4962-5.374c-11.6093-13.4972,2.2095-26.9927-1.1569-40.4879
		c3.3663-13.4952-10.4524-26.9907,1.1569-40.4879c7.1663-4.0171,14.3326-3.0363,21.4962-5.374
		c25.9889,32.8354,53.8318,26.6392,72.5497,34.9313c-0.0377-15.3859,6.2957-6.1129-5.374-21.4962
		c30.3553-9.3804,21.2167-36.0384,21.4962-53.7405c15.5471,13.4351,6.911,26.8702,8.061,40.3054
		c8.061-8.0611,16.1222-16.1222,24.1832-24.1833c3.5818,3.5818,7.1663,7.1663,10.748,10.7481
		c-16.8073-0.1746-31.9648,13.5588-37.6183,32.2443c17.0168-6.2311,34.0338-19.4111,51.0535-8.0611
		c-15.2865,8.5582-44.7041-3.3023-51.0535,18.8092c14.3325,4.7507,28.6598,10.8502,42.9924,16.1221
		C1619.0554,827.0875,1618.9637,827.1483,1618.8722,827.208z M827.208,141.5973c5.9055-13.9468,5.5664-27.8936,0.1826-41.8396
		c-0.0609-0.033-0.1217-0.0658-0.1826-0.0984c-0.0609,0.0326-0.1217,0.0654-0.1826,0.0984
		C821.6416,113.7037,821.3026,127.6505,827.208,141.5973z M141.5973,827.208c-13.9468-5.9055-27.8936-5.5664-41.8396-0.1826
		c-0.033,0.0609-0.0658,0.1217-0.0984,0.1826c0.0326,0.0609,0.0654,0.1217,0.0984,0.1826
		C113.7037,832.7744,127.6505,833.1135,141.5973,827.208z M827.208,1512.8187c-5.9055,13.9468-5.5664,27.8936-0.1826,41.8396
		c0.0609,0.0331,0.1217,0.0658,0.1826,0.0984c0.0609-0.0326,0.1217-0.0653,0.1826-0.0984
		C832.7744,1540.7123,833.1135,1526.7655,827.208,1512.8187z M1512.8187,827.208c13.9468,5.9055,27.8936,5.5664,41.8396,0.1826
		c0.0331-0.0609,0.0658-0.1217,0.0984-0.1826c-0.0326-0.0609-0.0653-0.1217-0.0984-0.1826
		C1540.7123,821.6416,1526.7655,821.3026,1512.8187,827.208z"/>
	<path id="path481" d="M848.8867,29.895c-4.3073,13.4378,2.8939,26.873-2.687,40.3054
		C841.0272,56.768,838.6438,43.3302,848.8867,29.895z"/>
	<path id="path481_6_" d="M29.895,805.5293c13.4378,4.3073,26.873-2.8939,40.3054,2.687
		C56.768,813.3889,43.3302,815.7722,29.895,805.5293z"/>
	<path id="path481_4_" d="M805.5293,1624.521c4.3073-13.4379-2.8939-26.8729,2.687-40.3054
		C813.3889,1597.6479,815.7722,1611.0858,805.5293,1624.521z"/>
	<path id="path481_2_" d="M1624.521,848.8867c-13.4379-4.3073-26.8729,2.8939-40.3054-2.687
		C1597.6479,841.0272,1611.0858,838.6438,1624.521,848.8867z"/>
	<path id="path481_1_" d="M1624.521,805.5293c-13.4379,4.3073-26.8729-2.8939-40.3054,2.687
		C1597.6479,813.3889,1611.0858,815.7722,1624.521,805.5293z"/>
	<path id="path481_7_" d="M805.5293,29.895c4.3073,13.4378-2.8939,26.873,2.687,40.3054
		C813.3889,56.768,815.7722,43.3302,805.5293,29.895z"/>
	<path id="path481_5_" d="M29.895,848.8867c13.4378-4.3073,26.873,2.8939,40.3054-2.687
		C56.768,841.0272,43.3302,838.6438,29.895,848.8867z"/>
	<path id="path481_3_" d="M848.8867,1624.521c-4.3073-13.4379,2.8939-26.8729-2.687-40.3054
		C841.0272,1597.6479,838.6438,1611.0858,848.8867,1624.521z"/>
	<path id="path487" d="M983.238,115.8799c2.8375-16.1222-23.2589-32.2443-26.8703-48.3665
		c11.5354-9.7566,19.9727,21.9235,24.1833,29.5573c4.2106-0.5724,6.2688-56.3227,34.9313-40.3054
		c-0.79,15.5686-17.8687,3.7511-26.8702,21.4962c3.0283,9.8533-3.8532,19.7066,8.0611,29.5573
		c-7.7709,0.0806-14.3541,6.4543-2.687,13.4351c-20.9534-2.9557-19.841-14.9184-34.9313-29.5573
		c-8.843-6.4892-39.2225,3.0283-24.1832-18.8092C951.0582,85.7798,975.2495,93.0482,983.238,115.8799z"/>
	<path id="path487_6_" d="M115.8799,671.178c-16.1222-2.8375-32.2443,23.2589-48.3665,26.8703
		c-9.7566-11.5354,21.9235-19.9727,29.5573-24.1833c-0.5724-4.2106-56.3227-6.2688-40.3054-34.9313
		c15.5686,0.79,3.7511,17.8687,21.4962,26.8702c9.8533-3.0283,19.7066,3.8532,29.5573-8.0611
		c0.0806,7.7709,6.4543,14.3541,13.4351,2.687c-2.9557,20.9534-14.9184,19.841-29.5573,34.9313
		c-6.4892,8.843,3.0283,39.2225-18.8092,24.1832C85.7798,703.3578,93.0482,679.1666,115.8799,671.178z"/>
	<path id="path487_4_" d="M671.178,1538.5361c-2.8375,16.1222,23.2589,32.2444,26.8703,48.3665
		c-11.5354,9.7567-19.9727-21.9235-24.1833-29.5573c-4.2106,0.5724-6.2688,56.3228-34.9313,40.3054
		c0.79-15.5687,17.8687-3.7511,26.8702-21.4962c-3.0283-9.8533,3.8532-19.7067-8.0611-29.5573
		c7.7709-0.0807,14.3541-6.4543,2.687-13.4352c20.9534,2.9557,19.841,14.9185,34.9313,29.5573
		c8.843,6.4893,39.2225-3.0282,24.1832,18.8092C703.3578,1568.6362,679.1666,1561.3678,671.178,1538.5361z"/>
	<path id="path487_2_" d="M1538.5361,983.238c16.1222,2.8375,32.2444-23.2589,48.3665-26.8703
		c9.7567,11.5354-21.9235,19.9727-29.5573,24.1833c0.5724,4.2106,56.3228,6.2688,40.3054,34.9313
		c-15.5687-0.79-3.7511-17.8687-21.4962-26.8702c-9.8533,3.0283-19.7067-3.8532-29.5573,8.0611
		c-0.0807-7.7709-6.4543-14.3541-13.4352-2.687c2.9557-20.9534,14.9185-19.841,29.5573-34.9313
		c6.4893-8.843-3.0282-39.2225,18.8092-24.1832C1568.6362,951.0582,1561.3678,975.2495,1538.5361,983.238z"/>
	<path id="path487_1_" d="M1538.5361,671.178c16.1222-2.8375,32.2444,23.2589,48.3665,26.8703
		c9.7567-11.5354-21.9235-19.9727-29.5573-24.1833c0.5724-4.2106,56.3228-6.2688,40.3054-34.9313
		c-15.5687,0.79-3.7511,17.8687-21.4962,26.8702c-9.8533-3.0283-19.7067,3.8532-29.5573-8.0611
		c-0.0807,7.7709-6.4543,14.3541-13.4352,2.687c2.9557,20.9534,14.9185,19.841,29.5573,34.9313
		c6.4893,8.843-3.0282,39.2225,18.8092,24.1832C1568.6362,703.3578,1561.3678,679.1666,1538.5361,671.178z"/>
	<path id="path487_7_" d="M671.178,115.8799c-2.8375-16.1222,23.2589-32.2443,26.8703-48.3665
		c-11.5354-9.7566-19.9727,21.9235-24.1833,29.5573c-4.2106-0.5724-6.2688-56.3227-34.9313-40.3054
		c0.79,15.5686,17.8687,3.7511,26.8702,21.4962c-3.0283,9.8533,3.8532,19.7066-8.0611,29.5573
		c7.7709,0.0806,14.3541,6.4543,2.687,13.4351c20.9534-2.9557,19.841-14.9184,34.9313-29.5573
		c8.843-6.4892,39.2225,3.0283,24.1832-18.8092C703.3578,85.7798,679.1666,93.0482,671.178,115.8799z"/>
	<path id="path487_5_" d="M115.8799,983.238c-16.1222,2.8375-32.2443-23.2589-48.3665-26.8703
		c-9.7566,11.5354,21.9235,19.9727,29.5573,24.1833c-0.5724,4.2106-56.3227,6.2688-40.3054,34.9313
		c15.5686-0.79,3.7511-17.8687,21.4962-26.8702c9.8533,3.0283,19.7066-3.8532,29.5573,8.0611
		c0.0806-7.7709,6.4543-14.3541,13.4351-2.687c-2.9557-20.9534-14.9184-19.841-29.5573-34.9313
		c-6.4892-8.843,3.0283-39.2225-18.8092-24.1832C85.7798,951.0582,93.0482,975.2495,115.8799,983.238z"/>
	<path id="path487_3_" d="M983.238,1538.5361c2.8375,16.1222-23.2589,32.2444-26.8703,48.3665
		c11.5354,9.7567,19.9727-21.9235,24.1833-29.5573c4.2106,0.5724,6.2688,56.3228,34.9313,40.3054
		c-0.79-15.5687-17.8687-3.7511-26.8702-21.4962c3.0283-9.8533-3.8532-19.7067,8.0611-29.5573
		c-7.7709-0.0807-14.3541-6.4543-2.687-13.4352c-20.9534,2.9557-19.841,14.9185-34.9313,29.5573
		c-8.843,6.4893-39.2225-3.0282-24.1832,18.8092C951.0582,1568.6362,975.2495,1561.3678,983.238,1538.5361z"/>
	<path id="path491" d="M1039.6655,48.7042c13.7065-5.7744,19.8438,18.4034,21.4962,26.8703
		c3.3077,16.931-9.9474,36.4038-5.374,48.3665c-11.2372-3.692,2.953-30.3714,0-42.9924c-4.7131-4.4766-4.9629-8.9559-2.687-13.4351
		C1044.1797,58.27,1036.7877,60.8953,1039.6655,48.7042z"/>
	<path id="path491_6_" d="M48.7042,614.7504c-5.7744-13.7065,18.4034-19.8437,26.8703-21.4962
		c16.931-3.3077,36.4038,9.9473,48.3665,5.374c-3.692,11.2371-30.3714-2.953-42.9924,0c-4.4766,4.7131-8.9559,4.9629-13.4351,2.687
		C58.27,610.2363,60.8953,617.6283,48.7042,614.7504z"/>
	<path id="path491_4_" d="M614.7504,1605.7118c-13.7065,5.7744-19.8437-18.4034-21.4962-26.8702
		c-3.3077-16.931,9.9473-36.4038,5.374-48.3665c11.2371,3.692-2.953,30.3715,0,42.9924c4.7131,4.4766,4.9629,8.9558,2.687,13.4351
		C610.2363,1596.146,617.6283,1593.5208,614.7504,1605.7118z"/>
	<path id="path491_2_" d="M1605.7118,1039.6655c5.7744,13.7065-18.4034,19.8438-26.8702,21.4962
		c-16.931,3.3077-36.4038-9.9474-48.3665-5.374c3.692-11.2372,30.3715,2.953,42.9924,0c4.4766-4.7131,8.9558-4.9629,13.4351-2.687
		C1596.146,1044.1797,1593.5208,1036.7877,1605.7118,1039.6655z"/>
	<path id="path491_1_" d="M1605.7118,614.7504c5.7744-13.7065-18.4034-19.8437-26.8702-21.4962
		c-16.931-3.3077-36.4038,9.9473-48.3665,5.374c3.692,11.2371,30.3715-2.953,42.9924,0c4.4766,4.7131,8.9558,4.9629,13.4351,2.687
		C1596.146,610.2363,1593.5208,617.6283,1605.7118,614.7504z"/>
	<path id="path491_7_" d="M614.7504,48.7042c-13.7065-5.7744-19.8437,18.4034-21.4962,26.8703
		c-3.3077,16.931,9.9473,36.4038,5.374,48.3665c11.2371-3.692-2.953-30.3714,0-42.9924c4.7131-4.4766,4.9629-8.9559,2.687-13.4351
		C610.2363,58.27,617.6283,60.8953,614.7504,48.7042z"/>
	<path id="path491_5_" d="M48.7042,1039.6655c-5.7744,13.7065,18.4034,19.8438,26.8703,21.4962
		c16.931,3.3077,36.4038-9.9474,48.3665-5.374c-3.692-11.2372-30.3714,2.953-42.9924,0c-4.4766-4.7131-8.9559-4.9629-13.4351-2.687
		C58.27,1044.1797,60.8953,1036.7877,48.7042,1039.6655z"/>
	<path id="path491_3_" d="M1039.6655,1605.7118c13.7065,5.7744,19.8438-18.4034,21.4962-26.8702
		c3.3077-16.931-9.9474-36.4038-5.374-48.3665c-11.2372,3.692,2.953,30.3715,0,42.9924c-4.7131,4.4766-4.9629,8.9558-2.687,13.4351
		C1044.1797,1596.146,1036.7877,1593.5208,1039.6655,1605.7118z"/>
	<path id="path493" d="M1128.3374,89.0096c-15.9072,1.1286-43.8496-1.1796-51.0535,24.1832
		c12.5376,7.8676,25.078-9.9501,37.6183,10.7481c-38.2068,7.349-32.7789,66.3561-75.2367,75.2367
		c-7.3893-18.8092,18.6293-37.6211,8.0612-56.4275c3.5818-3.5818,7.1663-7.1663,10.748-10.7481
		c-4.5975-20.6337,17.1406-55.4844,29.5573-67.1756c10.6353,16.0201-34.4154,36.5221-21.4962,59.1146
		C1076.0317,102.8854,1104.3611,61.8895,1128.3374,89.0096z"/>
	<path id="path493_6_" d="M89.0096,526.0786c1.1286,15.9072-1.1796,43.8495,24.1832,51.0535
		c7.8676-12.5376-9.9501-25.078,10.7481-37.6183c7.349,38.2068,66.3561,32.779,75.2367,75.2367
		c-18.8092,7.3893-37.6211-18.6292-56.4275-8.061c-3.5818-3.5818-7.1663-7.1663-10.7481-10.7481
		c-20.6337,4.5975-55.4844-17.1406-67.1756-29.5573c16.0201-10.6352,36.5221,34.4155,59.1146,21.4962
		C102.8854,578.3843,61.8895,550.0549,89.0096,526.0786z"/>
	<path id="path493_4_" d="M526.0786,1565.4064c15.9072-1.1285,43.8495,1.1797,51.0535-24.1832
		c-12.5376-7.8676-25.078,9.9501-37.6183-10.748c38.2068-7.349,32.779-66.3561,75.2367-75.2367
		c7.3893,18.8092-18.6292,37.6211-8.061,56.4275c-3.5818,3.5818-7.1663,7.1663-10.7481,10.7482
		c4.5975,20.6337-17.1406,55.4844-29.5573,67.1755c-10.6352-16.02,34.4155-36.522,21.4962-59.1145
		C578.3843,1551.5306,550.0549,1592.5265,526.0786,1565.4064z"/>
	<path id="path493_2_" d="M1565.4064,1128.3374c-1.1285-15.9072,1.1797-43.8496-24.1832-51.0535
		c-7.8676,12.5376,9.9501,25.078-10.748,37.6183c-7.349-38.2068-66.3561-32.7789-75.2367-75.2367
		c18.8092-7.3893,37.6211,18.6293,56.4275,8.0612c3.5818,3.5818,7.1663,7.1663,10.7482,10.748
		c20.6337-4.5975,55.4844,17.1406,67.1755,29.5573c-16.02,10.6353-36.522-34.4154-59.1145-21.4962
		C1551.5306,1076.0317,1592.5265,1104.3611,1565.4064,1128.3374z"/>
	<path id="path493_1_" d="M1565.4064,526.0786c-1.1285,15.9072,1.1797,43.8495-24.1832,51.0535
		c-7.8676-12.5376,9.9501-25.078-10.748-37.6183c-7.349,38.2068-66.3561,32.779-75.2367,75.2367
		c18.8092,7.3893,37.6211-18.6292,56.4275-8.061c3.5818-3.5818,7.1663-7.1663,10.7482-10.7481
		c20.6337,4.5975,55.4844-17.1406,67.1755-29.5573c-16.02-10.6352-36.522,34.4155-59.1145,21.4962
		C1551.5306,578.3843,1592.5265,550.0549,1565.4064,526.0786z"/>
	<path id="path493_7_" d="M526.0786,89.0096c15.9072,1.1286,43.8495-1.1796,51.0535,24.1832
		c-12.5376,7.8676-25.078-9.9501-37.6183,10.7481c38.2068,7.349,32.779,66.3561,75.2367,75.2367
		c7.3893-18.8092-18.6292-37.6211-8.061-56.4275c-3.5818-3.5818-7.1663-7.1663-10.7481-10.7481
		c4.5975-20.6337-17.1406-55.4844-29.5573-67.1756c-10.6352,16.0201,34.4155,36.5221,21.4962,59.1146
		C578.3843,102.8854,550.0549,61.8895,526.0786,89.0096z"/>
	<path id="path493_5_" d="M89.0096,1128.3374c1.1286-15.9072-1.1796-43.8496,24.1832-51.0535
		c7.8676,12.5376-9.9501,25.078,10.7481,37.6183c7.349-38.2068,66.3561-32.7789,75.2367-75.2367
		c-18.8092-7.3893-37.6211,18.6293-56.4275,8.0612c-3.5818,3.5818-7.1663,7.1663-10.7481,10.748
		c-20.6337-4.5975-55.4844,17.1406-67.1756,29.5573c16.0201,10.6353,36.5221-34.4154,59.1146-21.4962
		C102.8854,1076.0317,61.8895,1104.3611,89.0096,1128.3374z"/>
	<path id="path493_3_" d="M1128.3374,1565.4064c-15.9072-1.1285-43.8496,1.1797-51.0535-24.1832
		c12.5376-7.8676,25.078,9.9501,37.6183-10.748c-38.2068-7.349-32.7789-66.3561-75.2367-75.2367
		c-7.3893,18.8092,18.6293,37.6211,8.0612,56.4275c3.5818,3.5818,7.1663,7.1663,10.748,10.7482
		c-4.5975,20.6337,17.1406,55.4844,29.5573,67.1755c10.6353-16.02-34.4154-36.522-21.4962-59.1145
		C1076.0317,1551.5306,1104.3611,1592.5265,1128.3374,1565.4064z"/>
	<path id="path497" d="M1152.5206,64.8264c10.7346,4.4363,11.9438,10.8798,16.1222,21.4962
		c-11.8282,3.966-8.3191-21.1684-21.4962-5.3741c-4.9065,7.1636,14.1848,14.3299,10.748,21.4962
		c-10.2805,6.5671-10.6702-3.6625-16.1221-10.7481c-4.7722,6.2715,1.8137,12.5404,2.687,18.8092
		c-9.7405,4.8501-6.6747-12.1561-10.7482-16.1222C1146.4023,84.5303,1144.027,74.6797,1152.5206,64.8264z"/>
	<path id="path497_6_" d="M64.8264,501.8954c4.4363-10.7346,10.8798-11.9438,21.4962-16.1222
		c3.966,11.8283-21.1684,8.3191-5.3741,21.4962c7.1636,4.9065,14.3299-14.1848,21.4962-10.7481
		c6.5671,10.2806-3.6625,10.6702-10.7481,16.1222c6.2715,4.7721,12.5404-1.8138,18.8092-2.687
		c4.8501,9.7404-12.1561,6.6746-16.1222,10.7481C84.5303,508.0137,74.6797,510.3891,64.8264,501.8954z"/>
	<path id="path497_4_" d="M501.8954,1589.5896c-10.7346-4.4363-11.9438-10.8798-16.1222-21.4961
		c11.8283-3.9661,8.3191,21.1683,21.4962,5.374c4.9065-7.1637-14.1848-14.33-10.7481-21.4962
		c10.2806-6.5671,10.6702,3.6625,16.1222,10.748c4.7721-6.2715-1.8138-12.5403-2.687-18.8092
		c9.7404-4.85,6.6746,12.1561,10.7481,16.1222C508.0137,1569.8857,510.3891,1579.7363,501.8954,1589.5896z"/>
	<path id="path497_2_" d="M1589.5896,1152.5206c-4.4363,10.7346-10.8798,11.9438-21.4961,16.1222
		c-3.9661-11.8282,21.1683-8.3191,5.374-21.4962c-7.1637-4.9065-14.33,14.1848-21.4962,10.748
		c-6.5671-10.2805,3.6625-10.6702,10.748-16.1221c-6.2715-4.7722-12.5403,1.8137-18.8092,2.687
		c-4.85-9.7405,12.1561-6.6747,16.1222-10.7482C1569.8857,1146.4023,1579.7363,1144.027,1589.5896,1152.5206z"/>
	<path id="path497_1_" d="M1589.5896,501.8954c-4.4363-10.7346-10.8798-11.9438-21.4961-16.1222
		c-3.9661,11.8283,21.1683,8.3191,5.374,21.4962c-7.1637,4.9065-14.33-14.1848-21.4962-10.7481
		c-6.5671,10.2806,3.6625,10.6702,10.748,16.1222c-6.2715,4.7721-12.5403-1.8138-18.8092-2.687
		c-4.85,9.7404,12.1561,6.6746,16.1222,10.7481C1569.8857,508.0137,1579.7363,510.3891,1589.5896,501.8954z"/>
	<path id="path497_7_" d="M501.8954,64.8264c-10.7346,4.4363-11.9438,10.8798-16.1222,21.4962
		c11.8283,3.966,8.3191-21.1684,21.4962-5.3741c4.9065,7.1636-14.1848,14.3299-10.7481,21.4962
		c10.2806,6.5671,10.6702-3.6625,16.1222-10.7481c4.7721,6.2715-1.8138,12.5404-2.687,18.8092
		c9.7404,4.8501,6.6746-12.1561,10.7481-16.1222C508.0137,84.5303,510.3891,74.6797,501.8954,64.8264z"/>
	<path id="path497_5_" d="M64.8264,1152.5206c4.4363,10.7346,10.8798,11.9438,21.4962,16.1222
		c3.966-11.8282-21.1684-8.3191-5.3741-21.4962c7.1636-4.9065,14.3299,14.1848,21.4962,10.748
		c6.5671-10.2805-3.6625-10.6702-10.7481-16.1221c6.2715-4.7722,12.5404,1.8137,18.8092,2.687
		c4.8501-9.7405-12.1561-6.6747-16.1222-10.7482C84.5303,1146.4023,74.6797,1144.027,64.8264,1152.5206z"/>
	<path id="path497_3_" d="M1152.5206,1589.5896c10.7346-4.4363,11.9438-10.8798,16.1222-21.4961
		c-11.8282-3.9661-8.3191,21.1683-21.4962,5.374c-4.9065-7.1637,14.1848-14.33,10.748-21.4962
		c-10.2805-6.5671-10.6702,3.6625-16.1221,10.748c-4.7722-6.2715,1.8137-12.5403,2.687-18.8092
		c-9.7405-4.85-6.6747,12.1561-10.7482,16.1222C1146.4023,1569.8857,1144.027,1579.7363,1152.5206,1589.5896z"/>
	<path id="path499" d="M1147.1466,113.1928c0.6206,6.3495,19.6986,35.767,40.3053,51.0535
		c-4.6888,6.2689,2.0018,12.5403-2.687,18.8092c-8.9585,14.612-17.9116-0.2634-26.8702,10.7481
		c-2.3646,5.3741-2.3646,10.7481,0,16.1222c20.6014,17.3233,41.2002,9.2622,61.8016-8.0611
		c-17.9117-11.5596-35.8262,16.8557-53.7405,0c23.2883-10.7561,46.5741-22.794,69.8627-26.8703
		c-3.1143-17.9628-30.6134-63.4326-53.7406-42.9924c13.9484-27.663,41.1517-17.9789,56.4276-2.687
		c12.981,12.9918,5.3552,42.5329,26.8702,48.3665c-26.1421,22.2782-71.8484,67.1944-104.7941,45.6794
		c-13.0697-8.534-8.7811-21.5123-24.1832-29.5573c5.374-6.8734,10.7482-9.453,16.1222-5.3741
		c-2.7998-21.4962,3.6705-42.9924-10.748-64.4886C1145.8165,120.3591,1149.8256,116.7746,1147.1466,113.1928z"/>
	<path id="path499_6_" d="M113.1928,507.2694c6.3495-0.6207,35.767-19.6986,51.0535-40.3054
		c6.2689,4.6888,12.5403-2.0018,18.8092,2.687c14.612,8.9585-0.2634,17.9117,10.7481,26.8702
		c5.3741,2.3646,10.7481,2.3646,16.1222,0c17.3233-20.6014,9.2622-41.2001-8.0611-61.8016
		c-11.5596,17.9117,16.8557,35.8261,0,53.7405c-10.7561-23.2885-22.794-46.5742-26.8703-69.8627
		c-17.9628,3.1143-63.4326,30.6133-42.9924,53.7405c-27.663-13.9484-17.9789-41.1518-2.687-56.4276
		c12.9918-12.981,42.5329-5.3552,48.3665-26.8702c22.2782,26.1421,67.1944,71.8483,45.6794,104.794
		c-8.534,13.0697-21.5123,8.7812-29.5573,24.1832c-6.8734-5.374-9.453-10.7481-5.3741-16.1221
		c-21.4962,2.7999-42.9924-3.6705-64.4886,10.7481C120.3591,508.5995,116.7746,504.5905,113.1928,507.2694z"/>
	<path id="path499_4_" d="M507.2694,1541.2231c-0.6207-6.3494-19.6986-35.767-40.3054-51.0535
		c4.6888-6.2688-2.0018-12.5403,2.687-18.8092c8.9585-14.6119,17.9117,0.2634,26.8702-10.748c2.3646-5.374,2.3646-10.748,0-16.1222
		c-20.6014-17.3232-41.2001-9.2622-61.8016,8.0612c17.9117,11.5594,35.8261-16.8558,53.7405,0
		c-23.2885,10.7561-46.5742,22.7939-69.8627,26.8702c3.1143,17.9628,30.6133,63.4326,53.7405,42.9924
		c-13.9484,27.663-41.1518,17.9789-56.4276,2.687c-12.981-12.9918-5.3552-42.533-26.8702-48.3665
		c26.1421-22.2782,71.8483-67.1945,104.794-45.6794c13.0697,8.5339,8.7812,21.5122,24.1832,29.5573
		c-5.374,6.8734-10.7481,9.453-16.1221,5.374c2.7999,21.4962-3.6705,42.9924,10.7481,64.4886
		C508.5995,1534.0569,504.5905,1537.6414,507.2694,1541.2231z"/>
	<path id="path499_2_" d="M1541.2231,1147.1466c-6.3494,0.6206-35.767,19.6986-51.0535,40.3053
		c-6.2688-4.6888-12.5403,2.0018-18.8092-2.687c-14.6119-8.9585,0.2634-17.9116-10.748-26.8702
		c-5.374-2.3646-10.748-2.3646-16.1222,0c-17.3232,20.6014-9.2622,41.2002,8.0612,61.8016
		c11.5594-17.9117-16.8558-35.8262,0-53.7405c10.7561,23.2883,22.7939,46.5741,26.8702,69.8627
		c17.9628-3.1143,63.4326-30.6134,42.9924-53.7406c27.663,13.9484,17.9789,41.1517,2.687,56.4276
		c-12.9918,12.981-42.533,5.3552-48.3665,26.8702c-22.2782-26.1421-67.1945-71.8484-45.6794-104.7941
		c8.5339-13.0697,21.5122-8.7811,29.5573-24.1832c6.8734,5.374,9.453,10.7482,5.374,16.1222
		c21.4962-2.7998,42.9924,3.6705,64.4886-10.748C1534.0569,1145.8165,1537.6414,1149.8256,1541.2231,1147.1466z"/>
	<path id="path499_1_" d="M1541.2231,507.2694c-6.3494-0.6207-35.767-19.6986-51.0535-40.3054
		c-6.2688,4.6888-12.5403-2.0018-18.8092,2.687c-14.6119,8.9585,0.2634,17.9117-10.748,26.8702
		c-5.374,2.3646-10.748,2.3646-16.1222,0c-17.3232-20.6014-9.2622-41.2001,8.0612-61.8016
		c11.5594,17.9117-16.8558,35.8261,0,53.7405c10.7561-23.2885,22.7939-46.5742,26.8702-69.8627
		c17.9628,3.1143,63.4326,30.6133,42.9924,53.7405c27.663-13.9484,17.9789-41.1518,2.687-56.4276
		c-12.9918-12.981-42.533-5.3552-48.3665-26.8702c-22.2782,26.1421-67.1945,71.8483-45.6794,104.794
		c8.5339,13.0697,21.5122,8.7812,29.5573,24.1832c6.8734-5.374,9.453-10.7481,5.374-16.1221
		c21.4962,2.7999,42.9924-3.6705,64.4886,10.7481C1534.0569,508.5995,1537.6414,504.5905,1541.2231,507.2694z"/>
	<path id="path499_7_" d="M507.2694,113.1928c-0.6207,6.3495-19.6986,35.767-40.3054,51.0535
		c4.6888,6.2689-2.0018,12.5403,2.687,18.8092c8.9585,14.612,17.9117-0.2634,26.8702,10.7481
		c2.3646,5.3741,2.3646,10.7481,0,16.1222c-20.6014,17.3233-41.2001,9.2622-61.8016-8.0611
		c17.9117-11.5596,35.8261,16.8557,53.7405,0c-23.2885-10.7561-46.5742-22.794-69.8627-26.8703
		c3.1143-17.9628,30.6133-63.4326,53.7405-42.9924c-13.9484-27.663-41.1518-17.9789-56.4276-2.687
		c-12.981,12.9918-5.3552,42.5329-26.8702,48.3665c26.1421,22.2782,71.8483,67.1944,104.794,45.6794
		c13.0697-8.534,8.7812-21.5123,24.1832-29.5573c-5.374-6.8734-10.7481-9.453-16.1221-5.3741
		c2.7999-21.4962-3.6705-42.9924,10.7481-64.4886C508.5995,120.3591,504.5905,116.7746,507.2694,113.1928z"/>
	<path id="path499_5_" d="M113.1928,1147.1466c6.3495,0.6206,35.767,19.6986,51.0535,40.3053
		c6.2689-4.6888,12.5403,2.0018,18.8092-2.687c14.612-8.9585-0.2634-17.9116,10.7481-26.8702
		c5.3741-2.3646,10.7481-2.3646,16.1222,0c17.3233,20.6014,9.2622,41.2002-8.0611,61.8016
		c-11.5596-17.9117,16.8557-35.8262,0-53.7405c-10.7561,23.2883-22.794,46.5741-26.8703,69.8627
		c-17.9628-3.1143-63.4326-30.6134-42.9924-53.7406c-27.663,13.9484-17.9789,41.1517-2.687,56.4276
		c12.9918,12.981,42.5329,5.3552,48.3665,26.8702c22.2782-26.1421,67.1944-71.8484,45.6794-104.7941
		c-8.534-13.0697-21.5123-8.7811-29.5573-24.1832c-6.8734,5.374-9.453,10.7482-5.3741,16.1222
		c-21.4962-2.7998-42.9924,3.6705-64.4886-10.748C120.3591,1145.8165,116.7746,1149.8256,113.1928,1147.1466z"/>
	<path id="path499_3_" d="M1147.1466,1541.2231c0.6206-6.3494,19.6986-35.767,40.3053-51.0535
		c-4.6888-6.2688,2.0018-12.5403-2.687-18.8092c-8.9585-14.6119-17.9116,0.2634-26.8702-10.748
		c-2.3646-5.374-2.3646-10.748,0-16.1222c20.6014-17.3232,41.2002-9.2622,61.8016,8.0612
		c-17.9117,11.5594-35.8262-16.8558-53.7405,0c23.2883,10.7561,46.5741,22.7939,69.8627,26.8702
		c-3.1143,17.9628-30.6134,63.4326-53.7406,42.9924c13.9484,27.663,41.1517,17.9789,56.4276,2.687
		c12.981-12.9918,5.3552-42.533,26.8702-48.3665c-26.1421-22.2782-71.8484-67.1945-104.7941-45.6794
		c-13.0697,8.5339-8.7811,21.5122-24.1832,29.5573c5.374,6.8734,10.7482,9.453,16.1222,5.374
		c-2.7998,21.4962,3.6705,42.9924-10.748,64.4886C1145.8165,1534.0569,1149.8256,1537.6414,1147.1466,1541.2231z"/>
	<path id="path503" d="M1225.0703,78.2615c6.1372,10.7481,11.7047,21.4962,10.7482,32.2443
		c-12.9113,4.8501-0.9862-12.1534-10.7482-16.1222c-4.1488-6.2769-16.1652,8.3136-5.374,10.7481
		C1206.5754,106.6822,1211.9362,85.6078,1225.0703,78.2615z"/>
	<path id="path503_6_" d="M78.2615,429.3457c10.7481-6.1372,21.4962-11.7047,32.2443-10.7481
		c4.8501,12.9111-12.1534,0.9861-16.1222,10.7481c-6.2769,4.1488,8.3136,16.1651,10.7481,5.3741
		C106.6822,447.8405,85.6078,442.4799,78.2615,429.3457z"/>
	<path id="path503_4_" d="M429.3457,1576.1545c-6.1372-10.7482-11.7047-21.4962-10.7481-32.2444
		c12.9111-4.85,0.9861,12.1536,10.7481,16.1222c4.1488,6.2769,16.1651-8.3136,5.3741-10.748
		C447.8405,1547.7338,442.4799,1568.8082,429.3457,1576.1545z"/>
	<path id="path503_2_" d="M1576.1545,1225.0703c-10.7482,6.1372-21.4962,11.7047-32.2444,10.7482
		c-4.85-12.9113,12.1536-0.9862,16.1222-10.7482c6.2769-4.1488-8.3136-16.1652-10.748-5.374
		C1547.7338,1206.5754,1568.8082,1211.9362,1576.1545,1225.0703z"/>
	<path id="path503_1_" d="M1576.1545,429.3457c-10.7482-6.1372-21.4962-11.7047-32.2444-10.7481
		c-4.85,12.9111,12.1536,0.9861,16.1222,10.7481c6.2769,4.1488-8.3136,16.1651-10.748,5.3741
		C1547.7338,447.8405,1568.8082,442.4799,1576.1545,429.3457z"/>
	<path id="path503_7_" d="M429.3457,78.2615c-6.1372,10.7481-11.7047,21.4962-10.7481,32.2443
		c12.9111,4.8501,0.9861-12.1534,10.7481-16.1222c4.1488-6.2769,16.1651,8.3136,5.3741,10.7481
		C447.8405,106.6822,442.4799,85.6078,429.3457,78.2615z"/>
	<path id="path503_5_" d="M78.2615,1225.0703c10.7481,6.1372,21.4962,11.7047,32.2443,10.7482
		c4.8501-12.9113-12.1534-0.9862-16.1222-10.7482c-6.2769-4.1488,8.3136-16.1652,10.7481-5.374
		C106.6822,1206.5754,85.6078,1211.9362,78.2615,1225.0703z"/>
	<path id="path503_3_" d="M1225.0703,1576.1545c6.1372-10.7482,11.7047-21.4962,10.7482-32.2444
		c-12.9113-4.85-0.9862,12.1536-10.7482,16.1222c-4.1488,6.2769-16.1652-8.3136-5.374-10.748
		C1206.5754,1547.7338,1211.9362,1568.8082,1225.0703,1576.1545z"/>
	<path id="path505" d="M1249.2535,54.0783c12.723,15.2274,23.9038,30.4548,13.4352,45.6794
		c17.0331,13.4324,14.7947,26.8703,24.1832,40.3054c-9.985,10.7481-3.3373,21.4962-16.1222,32.2443
		c-15.1897-5.6293-15.6735-24.1967-21.4962-37.6184c9.3536-17.017,12.8252-34.0366,13.4352-51.0535
		C1254.4905,73.7823,1235.8104,63.9316,1249.2535,54.0783z"/>
	<path id="path505_6_" d="M54.0783,405.1625c15.2274-12.7231,30.4548-23.9038,45.6794-13.4352
		c13.4324-17.0331,26.8703-14.7947,40.3054-24.1832c10.7481,9.985,21.4962,3.3373,32.2443,16.1222
		c-5.6293,15.1897-24.1967,15.6734-37.6184,21.4962c-17.017-9.3536-34.0366-12.8252-51.0535-13.4352
		C73.7823,399.9255,63.9316,418.6056,54.0783,405.1625z"/>
	<path id="path505_4_" d="M405.1625,1600.3378c-12.7231-15.2274-23.9038-30.4547-13.4352-45.6794
		c-17.0331-13.4324-14.7947-26.8704-24.1832-40.3054c9.985-10.748,3.3373-21.4962,16.1222-32.2443
		c15.1897,5.6293,15.6734,24.1967,21.4962,37.6183c-9.3536,17.017-12.8252,34.0366-13.4352,51.0536
		C399.9255,1580.6338,418.6056,1590.4845,405.1625,1600.3378z"/>
	<path id="path505_2_" d="M1600.3378,1249.2535c-15.2274,12.723-30.4547,23.9038-45.6794,13.4352
		c-13.4324,17.0331-26.8704,14.7947-40.3054,24.1832c-10.748-9.985-21.4962-3.3373-32.2443-16.1222
		c5.6293-15.1897,24.1967-15.6735,37.6183-21.4962c17.017,9.3536,34.0366,12.8252,51.0536,13.4352
		C1580.6338,1254.4905,1590.4845,1235.8104,1600.3378,1249.2535z"/>
	<path id="path505_1_" d="M1600.3378,405.1625c-15.2274-12.7231-30.4547-23.9038-45.6794-13.4352
		c-13.4324-17.0331-26.8704-14.7947-40.3054-24.1832c-10.748,9.985-21.4962,3.3373-32.2443,16.1222
		c5.6293,15.1897,24.1967,15.6734,37.6183,21.4962c17.017-9.3536,34.0366-12.8252,51.0536-13.4352
		C1580.6338,399.9255,1590.4845,418.6056,1600.3378,405.1625z"/>
	<path id="path505_7_" d="M405.1625,54.0783c-12.7231,15.2274-23.9038,30.4548-13.4352,45.6794
		c-17.0331,13.4324-14.7947,26.8703-24.1832,40.3054c9.985,10.7481,3.3373,21.4962,16.1222,32.2443
		c15.1897-5.6293,15.6734-24.1967,21.4962-37.6184c-9.3536-17.017-12.8252-34.0366-13.4352-51.0535
		C399.9255,73.7823,418.6056,63.9316,405.1625,54.0783z"/>
	<path id="path505_5_" d="M54.0783,1249.2535c15.2274,12.723,30.4548,23.9038,45.6794,13.4352
		c13.4324,17.0331,26.8703,14.7947,40.3054,24.1832c10.7481-9.985,21.4962-3.3373,32.2443-16.1222
		c-5.6293-15.1897-24.1967-15.6735-37.6184-21.4962c-17.017,9.3536-34.0366,12.8252-51.0535,13.4352
		C73.7823,1254.4905,63.9316,1235.8104,54.0783,1249.2535z"/>
	<path id="path505_3_" d="M1249.2535,1600.3378c12.723-15.2274,23.9038-30.4547,13.4352-45.6794
		c17.0331-13.4324,14.7947-26.8704,24.1832-40.3054c-9.985-10.748-3.3373-21.4962-16.1222-32.2443
		c-15.1897,5.6293-15.6735,24.1967-21.4962,37.6183c9.3536,17.017,12.8252,34.0366,13.4352,51.0536
		C1254.4905,1580.6338,1235.8104,1590.4845,1249.2535,1600.3378z"/>
	<path id="path507" d="M1238.5055,70.2004c14.6658,10.7481,13.8328,21.4962,16.1221,32.2443
		C1254.2137,102.2674,1231.9088,79.2906,1238.5055,70.2004z"/>
	<path id="path507_6_" d="M70.2004,415.9106c10.7481-14.6658,21.4962-13.8328,32.2443-16.1221
		C102.2674,400.2022,79.2906,422.5072,70.2004,415.9106z"/>
	<path id="path507_4_" d="M415.9106,1584.2156c-14.6658-10.748-13.8328-21.4962-16.1221-32.2443
		C400.2022,1552.1486,422.5072,1575.1254,415.9106,1584.2156z"/>
	<path id="path507_2_" d="M1584.2156,1238.5055c-10.748,14.6658-21.4962,13.8328-32.2443,16.1221
		C1552.1486,1254.2137,1575.1254,1231.9088,1584.2156,1238.5055z"/>
	<path id="path507_1_" d="M1584.2156,415.9106c-10.748-14.6658-21.4962-13.8328-32.2443-16.1221
		C1552.1486,400.2022,1575.1254,422.5072,1584.2156,415.9106z"/>
	<path id="path507_7_" d="M415.9106,70.2004c-14.6658,10.7481-13.8328,21.4962-16.1221,32.2443
		C400.2022,102.2674,422.5072,79.2906,415.9106,70.2004z"/>
	<path id="path507_5_" d="M70.2004,1238.5055c10.7481,14.6658,21.4962,13.8328,32.2443,16.1221
		C102.2674,1254.2137,79.2906,1231.9088,70.2004,1238.5055z"/>
	<path id="path507_3_" d="M1238.5055,1584.2156c14.6658-10.748,13.8328-21.4962,16.1221-32.2443
		C1254.2137,1552.1486,1231.9088,1575.1254,1238.5055,1584.2156z"/>
	<path id="path509" d="M1297.62,59.4523c11.213,19.0859-16.1544,30.5246,0,53.7405c9.7861-1.811-1.8245-38.2122,18.8092-40.3054
		c8.2411,10.5144-8.4238,14.5879-10.7482,21.4962c-2.9154,8.671,9.101,18.4626-2.687,24.1832
		c15.0742-1.005,41.9713-7.7279,48.3665,16.1221c-8.061,13.29-16.1222-13.9134-24.1832-2.687
		c-10.2134,21.4935-50.8761,42.9925-42.9923,64.4886c24.1804,17.7693,48.3665-4.6539,72.5497-29.5573
		c-16.1222-6.739-32.2443,17.8257-48.3665,5.3741c44.3386-46.2196,129.1626-40.1361,139.7252,26.8703
		c-22.1598,36.3205-59.5013,53.805-99.4199,67.1756c-46.1094,15.4397-88.0726,21.558-131.6642,34.9313
		c-37.2987,11.4441-76.4244,28.1116-112.8551,42.9924c-19.2499,7.8623-35.8987,20.2172-56.4275,18.8092
		c2.7139-3.5845-2.6306-7.1663-5.3741-10.7481c51.6178-27.9934,110.2164-49.4305,171.9697-69.8627
		c62.4384-20.6606,134.5098-25.293,188.0918-64.4886c12.1373-8.8806,14.8888-18.0058,24.1832-29.5573
		c-41.923-80.5409-119.2207,86.4926-161.2216,0c19.2499-21.4962,25.7067-42.9897,32.2443-64.4886
		C1289.9486,103.7802,1281.1566,70.8265,1297.62,59.4523z"/>
	<path id="path509_6_" d="M59.4523,356.796c19.0859-11.213,30.5246,16.1544,53.7405,0c-1.811-9.7861-38.2122,1.8245-40.3054-18.8092
		c10.5144-8.2411,14.5879,8.4239,21.4962,10.7481c8.671,2.9154,18.4626-9.1009,24.1832,2.687
		c-1.005-15.0742-7.7279-41.9713,16.1221-48.3665c13.29,8.061-13.9134,16.1222-2.687,24.1833
		c21.4935,10.2133,42.9925,50.8761,64.4886,42.9924c17.7693-24.1805-4.6539-48.3665-29.5573-72.5497
		c-6.739,16.1221,17.8257,32.2443,5.3741,48.3665c-46.2196-44.3386-40.1361-129.1626,26.8703-139.7253
		c36.3205,22.1599,53.805,59.5014,67.1756,99.42c15.4397,46.1094,21.558,88.0726,34.9313,131.6642
		c11.4441,37.2986,28.1116,76.4244,42.9924,112.8551c7.8623,19.2499,20.2172,35.8986,18.8092,56.4276
		c-3.5845-2.7139-7.1663,2.6306-10.7481,5.374c-27.9934-51.6177-49.4305-110.2164-69.8627-171.9696
		c-20.6606-62.4385-25.293-134.5098-64.4886-188.0918c-8.8806-12.1373-18.0058-14.8888-29.5573-24.1832
		c-80.5409,41.923,86.4926,119.2206,0,161.2215c-21.4962-19.2498-42.9897-25.7067-64.4886-32.2443
		C103.7802,364.4674,70.8265,373.2594,59.4523,356.796z"/>
	<path id="path509_4_" d="M356.796,1594.9637c-11.213-19.0859,16.1544-30.5247,0-53.7406
		c-9.7861,1.811,1.8245,38.2122-18.8092,40.3054c-8.2411-10.5144,8.4239-14.5879,10.7481-21.4962
		c2.9154-8.671-9.1009-18.4625,2.687-24.1832c-15.0742,1.005-41.9713,7.7279-48.3665-16.1222
		c8.061-13.2899,16.1222,13.9135,24.1833,2.6871c10.2133-21.4935,50.8761-42.9926,42.9924-64.4886
		c-24.1805-17.7693-48.3665,4.6539-72.5497,29.5573c16.1221,6.739,32.2443-17.8257,48.3665-5.374
		c-44.3386,46.2196-129.1626,40.1361-139.7253-26.8702c22.1599-36.3206,59.5014-53.8051,99.42-67.1757
		c46.1094-15.4397,88.0726-21.558,131.6642-34.9314c37.2986-11.444,76.4244-28.1116,112.8551-42.9923
		c19.2499-7.8623,35.8986-20.2172,56.4276-18.8092c-2.7139,3.5845,2.6306,7.1663,5.374,10.748
		c-51.6177,27.9934-110.2164,49.4305-171.9696,69.8627c-62.4385,20.6606-134.5098,25.293-188.0918,64.4886
		c-12.1373,8.8806-14.8888,18.0057-24.1832,29.5573c41.923,80.5409,119.2206-86.4927,161.2215,0
		c-19.2498,21.4962-25.7067,42.9897-32.2443,64.4886C364.4674,1550.6359,373.2594,1583.5896,356.796,1594.9637z"/>
	<path id="path509_2_" d="M1594.9637,1297.62c-19.0859,11.213-30.5247-16.1544-53.7406,0
		c1.811,9.7861,38.2122-1.8245,40.3054,18.8092c-10.5144,8.2411-14.5879-8.4238-21.4962-10.7482
		c-8.671-2.9154-18.4625,9.101-24.1832-2.687c1.005,15.0742,7.7279,41.9713-16.1222,48.3665
		c-13.2899-8.061,13.9135-16.1222,2.6871-24.1832c-21.4935-10.2134-42.9926-50.8761-64.4886-42.9923
		c-17.7693,24.1804,4.6539,48.3665,29.5573,72.5497c6.739-16.1222-17.8257-32.2443-5.374-48.3665
		c46.2196,44.3386,40.1361,129.1626-26.8702,139.7252c-36.3206-22.1598-53.8051-59.5013-67.1757-99.4199
		c-15.4397-46.1094-21.558-88.0726-34.9314-131.6642c-11.444-37.2987-28.1116-76.4244-42.9923-112.8551
		c-7.8623-19.2499-20.2172-35.8987-18.8092-56.4275c3.5845,2.7139,7.1663-2.6306,10.748-5.3741
		c27.9934,51.6178,49.4305,110.2164,69.8627,171.9697c20.6606,62.4384,25.293,134.5098,64.4886,188.0918
		c8.8806,12.1373,18.0057,14.8888,29.5573,24.1832c80.5409-41.923-86.4927-119.2207,0-161.2216
		c21.4962,19.2499,42.9897,25.7067,64.4886,32.2443C1550.6359,1289.9486,1583.5896,1281.1566,1594.9637,1297.62z"/>
	<path id="path509_1_" d="M1594.9637,356.796c-19.0859-11.213-30.5247,16.1544-53.7406,0
		c1.811-9.7861,38.2122,1.8245,40.3054-18.8092c-10.5144-8.2411-14.5879,8.4239-21.4962,10.7481
		c-8.671,2.9154-18.4625-9.1009-24.1832,2.687c1.005-15.0742,7.7279-41.9713-16.1222-48.3665
		c-13.2899,8.061,13.9135,16.1222,2.6871,24.1833c-21.4935,10.2133-42.9926,50.8761-64.4886,42.9924
		c-17.7693-24.1805,4.6539-48.3665,29.5573-72.5497c6.739,16.1221-17.8257,32.2443-5.374,48.3665
		c46.2196-44.3386,40.1361-129.1626-26.8702-139.7253c-36.3206,22.1599-53.8051,59.5014-67.1757,99.42
		c-15.4397,46.1094-21.558,88.0726-34.9314,131.6642c-11.444,37.2986-28.1116,76.4244-42.9923,112.8551
		c-7.8623,19.2499-20.2172,35.8986-18.8092,56.4276c3.5845-2.7139,7.1663,2.6306,10.748,5.374
		c27.9934-51.6177,49.4305-110.2164,69.8627-171.9696c20.6606-62.4385,25.293-134.5098,64.4886-188.0918
		c8.8806-12.1373,18.0057-14.8888,29.5573-24.1832c80.5409,41.923-86.4927,119.2206,0,161.2215
		c21.4962-19.2498,42.9897-25.7067,64.4886-32.2443C1550.6359,364.4674,1583.5896,373.2594,1594.9637,356.796z"/>
	<path id="path509_7_" d="M356.796,59.4523c-11.213,19.0859,16.1544,30.5246,0,53.7405
		c-9.7861-1.811,1.8245-38.2122-18.8092-40.3054c-8.2411,10.5144,8.4239,14.5879,10.7481,21.4962
		c2.9154,8.671-9.1009,18.4626,2.687,24.1832c-15.0742-1.005-41.9713-7.7279-48.3665,16.1221
		c8.061,13.29,16.1222-13.9134,24.1833-2.687c10.2133,21.4935,50.8761,42.9925,42.9924,64.4886
		c-24.1805,17.7693-48.3665-4.6539-72.5497-29.5573c16.1221-6.739,32.2443,17.8257,48.3665,5.3741
		c-44.3386-46.2196-129.1626-40.1361-139.7253,26.8703c22.1599,36.3205,59.5014,53.805,99.42,67.1756
		c46.1094,15.4397,88.0726,21.558,131.6642,34.9313c37.2986,11.4441,76.4244,28.1116,112.8551,42.9924
		c19.2499,7.8623,35.8986,20.2172,56.4276,18.8092c-2.7139-3.5845,2.6306-7.1663,5.374-10.7481
		c-51.6177-27.9934-110.2164-49.4305-171.9696-69.8627c-62.4385-20.6606-134.5098-25.293-188.0918-64.4886
		c-12.1373-8.8806-14.8888-18.0058-24.1832-29.5573c41.923-80.5409,119.2206,86.4926,161.2215,0
		c-19.2498-21.4962-25.7067-42.9897-32.2443-64.4886C364.4674,103.7802,373.2594,70.8265,356.796,59.4523z"/>
	<path id="path509_5_" d="M59.4523,1297.62c19.0859,11.213,30.5246-16.1544,53.7405,0c-1.811,9.7861-38.2122-1.8245-40.3054,18.8092
		c10.5144,8.2411,14.5879-8.4238,21.4962-10.7482c8.671-2.9154,18.4626,9.101,24.1832-2.687
		c-1.005,15.0742-7.7279,41.9713,16.1221,48.3665c13.29-8.061-13.9134-16.1222-2.687-24.1832
		c21.4935-10.2134,42.9925-50.8761,64.4886-42.9923c17.7693,24.1804-4.6539,48.3665-29.5573,72.5497
		c-6.739-16.1222,17.8257-32.2443,5.3741-48.3665c-46.2196,44.3386-40.1361,129.1626,26.8703,139.7252
		c36.3205-22.1598,53.805-59.5013,67.1756-99.4199c15.4397-46.1094,21.558-88.0726,34.9313-131.6642
		c11.4441-37.2987,28.1116-76.4244,42.9924-112.8551c7.8623-19.2499,20.2172-35.8987,18.8092-56.4275
		c-3.5845,2.7139-7.1663-2.6306-10.7481-5.3741c-27.9934,51.6178-49.4305,110.2164-69.8627,171.9697
		c-20.6606,62.4384-25.293,134.5098-64.4886,188.0918c-8.8806,12.1373-18.0058,14.8888-29.5573,24.1832
		c-80.5409-41.923,86.4926-119.2207,0-161.2216c-21.4962,19.2499-42.9897,25.7067-64.4886,32.2443
		C103.7802,1289.9486,70.8265,1281.1566,59.4523,1297.62z"/>
	<path id="path509_3_" d="M1297.62,1594.9637c11.213-19.0859-16.1544-30.5247,0-53.7406
		c9.7861,1.811-1.8245,38.2122,18.8092,40.3054c8.2411-10.5144-8.4238-14.5879-10.7482-21.4962
		c-2.9154-8.671,9.101-18.4625-2.687-24.1832c15.0742,1.005,41.9713,7.7279,48.3665-16.1222
		c-8.061-13.2899-16.1222,13.9135-24.1832,2.6871c-10.2134-21.4935-50.8761-42.9926-42.9923-64.4886
		c24.1804-17.7693,48.3665,4.6539,72.5497,29.5573c-16.1222,6.739-32.2443-17.8257-48.3665-5.374
		c44.3386,46.2196,129.1626,40.1361,139.7252-26.8702c-22.1598-36.3206-59.5013-53.8051-99.4199-67.1757
		c-46.1094-15.4397-88.0726-21.558-131.6642-34.9314c-37.2987-11.444-76.4244-28.1116-112.8551-42.9923
		c-19.2499-7.8623-35.8987-20.2172-56.4275-18.8092c2.7139,3.5845-2.6306,7.1663-5.3741,10.748
		c51.6178,27.9934,110.2164,49.4305,171.9697,69.8627c62.4384,20.6606,134.5098,25.293,188.0918,64.4886
		c12.1373,8.8806,14.8888,18.0057,24.1832,29.5573c-41.923,80.5409-119.2207-86.4927-161.2216,0
		c19.2499,21.4962,25.7067,42.9897,32.2443,64.4886C1289.9486,1550.6359,1281.1566,1583.5896,1297.62,1594.9637z"/>
</g>
</svg>
